<?xml version="1.0" standalone="no"?>
<!DOCTYPE svg PUBLIC "-//W3C//DTD SVG 20010904//EN"
 "http://www.w3.org/TR/2001/REC-SVG-20010904/DTD/svg10.dtd">
<svg version="1.0" xmlns="http://www.w3.org/2000/svg"
 width="734.000000pt" height="986.000000pt" viewBox="0 0 734.000000 986.000000"
 preserveAspectRatio="xMidYMid meet">

<g transform="translate(0.000000,986.000000) scale(0.100000,-0.100000)"
fill="#000000" stroke="none">
<path d="M3445 9564 c-207 -29 -264 -47 -312 -96 -18 -18 -36 -45 -42 -59 -13
-36 -10 -179 4 -179 6 0 19 -6 28 -12 16 -12 15 -17 -13 -58 -35 -53 -38 -85
-9 -116 22 -23 22 -25 8 -181 -7 -87 -13 -176 -13 -198 l-1 -40 77 -3 76 -3 8
68 c4 37 8 70 9 73 1 3 5 25 9 50 4 25 14 62 23 82 13 30 23 39 51 44 25 5 37
3 43 -8 6 -12 35 -14 156 -12 81 1 153 3 159 3 16 1 24 25 17 50 -5 20 -10 21
-82 15 -42 -3 -112 -1 -156 4 -66 8 -84 7 -104 -5 -13 -8 -20 -10 -17 -4 4 6
1 11 -8 11 -37 0 -65 77 -34 96 5 4 98 9 206 12 271 7 282 7 325 -1 34 -7 37
-10 37 -43 0 -24 -8 -43 -25 -60 -26 -26 -25 -27 26 -38 26 -6 37 -25 43 -71
2 -11 9 -60 15 -110 7 -49 14 -99 15 -110 2 -16 12 -21 51 -23 26 -2 51 0 56
5 4 4 1 58 -6 118 -8 61 -14 146 -15 191 0 68 3 84 20 99 31 28 25 68 -16 108
-34 32 -35 37 -21 51 8 9 21 16 27 16 6 0 8 5 4 12 -5 7 -2 9 8 6 12 -5 15 4
15 45 0 40 -1 43 -4 14 -2 -20 -8 -35 -14 -32 -12 8 -12 85 1 85 17 0 11 42
-9 59 -10 9 -25 30 -34 47 -31 60 -160 93 -392 98 -88 3 -173 3 -190 0z m-98
-86 c-8 -23 -12 -28 -15 -15 -5 26 -29 21 -36 -8 -8 -30 -26 -33 -26 -5 0 32
-29 23 -39 -12 l-9 -33 -1 31 c-1 17 6 37 14 44 16 13 65 27 102 29 21 1 21
-1 10 -31z m353 7 c0 -8 -4 -15 -10 -15 -5 0 -10 7 -10 15 0 8 5 15 10 15 6 0
10 -7 10 -15z m80 -6 c0 -6 -4 -7 -10 -4 -5 3 -10 11 -10 16 0 6 5 7 10 4 6
-3 10 -11 10 -16z m80 -6 c0 -10 11 -23 25 -30 23 -10 25 -9 25 15 0 19 3 23
11 15 16 -16 1 -56 -18 -49 -8 3 -26 6 -39 6 -20 0 -24 5 -24 30 0 17 5 30 10
30 6 0 10 -8 10 -17z m-463 -15 c-3 -8 -6 -5 -6 6 -1 11 2 17 5 13 3 -3 4 -12
1 -19z m86 2 c3 -11 1 -18 -4 -14 -5 3 -9 12 -9 20 0 20 7 17 13 -6z m56 -38
c1 -10 -2 -10 -12 0 -8 7 -12 21 -9 32 5 20 5 20 13 0 4 -10 8 -25 8 -32z
m241 27 c0 -12 -37 -12 -44 0 -3 4 -3 11 0 14 8 7 44 -4 44 -14z m-85 1 c-3
-5 -11 -10 -16 -10 -6 0 -7 5 -4 10 3 6 11 10 16 10 6 0 7 -4 4 -10z m-548
-52 c-3 -7 -5 -2 -5 12 0 14 2 19 5 13 2 -7 2 -19 0 -25z m229 -46 c-11 -10
-13 3 -7 43 l6 40 3 -39 c2 -21 1 -41 -2 -44z m394 69 c0 -5 -7 -11 -15 -15
-8 -3 -15 -17 -15 -31 0 -20 -5 -25 -25 -25 -22 0 -25 4 -25 40 l0 40 40 0
c22 0 40 -4 40 -9z m128 -11 c7 0 12 -15 12 -41 0 -40 -1 -41 -27 -34 -35 8
-33 6 -40 50 -6 36 -5 38 18 32 13 -4 30 -7 37 -7z m89 4 c-3 -3 -12 -4 -19
-1 -8 3 -5 6 6 6 11 1 17 -2 13 -5z m-671 -36 c-8 -38 -24 -51 -43 -33 -23 24
-16 53 15 58 15 2 29 5 31 6 2 0 1 -13 -3 -31z m707 5 c-7 -3 -14 -21 -14 -41
-2 -32 -3 -33 -6 -8 -3 15 -2 40 2 54 5 20 9 22 18 12 9 -10 9 -14 0 -17z m33
-19 c-19 -19 -21 -11 -4 16 7 11 14 16 16 10 2 -5 -4 -17 -12 -26z m-839 -21
c-3 -10 -5 -4 -5 12 0 17 2 24 5 18 2 -7 2 -21 0 -30z m606 -50 c3 -5 -113 -8
-257 -8 -143 0 -243 3 -221 6 58 9 473 10 478 2z m44 -9 c-3 -3 -12 -4 -19 -1
-8 3 -5 6 6 6 11 1 17 -2 13 -5z m-87 -64 c103 -14 114 -18 98 -37 -16 -20
-122 -11 -145 13 -14 14 -38 15 -177 10 -89 -3 -181 -8 -206 -12 -70 -10 -38
9 38 22 82 15 291 17 392 4z"/>
<path d="M3905 8603 c-106 -12 -529 -12 -770 0 l-50 2 -2 -65 c-2 -36 -7 -85
-12 -110 -13 -57 -14 -160 -2 -160 5 0 14 7 21 15 7 8 16 15 21 15 4 0 -4 -12
-19 -27 -15 -15 -30 -27 -34 -25 -13 3 -21 -49 -10 -60 15 -15 47 -1 62 27 17
32 24 31 50 -2 20 -26 21 -35 15 -123 -4 -52 -12 -105 -19 -117 -10 -18 -106
-98 -128 -105 -5 -2 -11 -40 -15 -86 -3 -45 -10 -82 -14 -82 -13 0 -11 -68 2
-76 8 -4 7 -9 -2 -14 -7 -5 -14 -30 -17 -56 -2 -27 -9 -98 -17 -159 -7 -61 -9
-115 -4 -121 5 -6 5 -15 0 -20 -5 -5 -14 -63 -20 -129 -21 -224 -62 -530 -83
-620 -25 -110 -35 -129 -162 -328 -55 -87 -106 -166 -111 -176 -6 -11 -16 -25
-22 -32 -18 -23 -128 -221 -145 -264 -25 -59 -45 -139 -58 -230 -10 -61 -11
-548 -5 -2070 4 -1094 10 -2116 15 -2270 8 -254 11 -289 34 -372 45 -163 135
-311 212 -348 39 -18 121 -42 179 -50 83 -13 102 -15 125 -16 14 0 35 -5 47
-11 17 -8 26 -8 38 2 11 9 18 10 29 1 8 -6 31 -12 52 -12 80 0 140 -5 157 -13
11 -5 28 -4 42 2 17 8 32 8 54 0 20 -8 37 -9 53 -2 16 8 30 7 47 -2 15 -8 33
-9 53 -3 17 5 40 4 55 -2 14 -5 33 -7 43 -4 9 3 107 7 216 10 413 9 692 43
856 105 73 27 133 95 187 211 94 205 93 164 67 1749 -17 1028 -26 1643 -31
2070 -10 915 -18 1048 -70 1190 -30 84 -142 290 -157 290 -5 0 -8 5 -8 10 0 9
-49 88 -78 125 -27 35 -82 116 -82 120 0 4 -44 81 -79 135 -8 14 -16 27 -17
30 0 3 -9 23 -18 44 -10 21 -24 78 -32 125 -8 47 -17 97 -20 111 -2 14 -6 43
-9 65 -3 22 -15 101 -25 175 -21 143 -42 313 -66 525 -8 71 -18 133 -24 139
-5 5 -6 21 -3 36 3 15 0 36 -6 47 -7 14 -7 23 0 30 17 17 2 49 -28 62 -19 9
-23 15 -14 20 10 6 9 10 -4 15 -9 3 -14 9 -11 14 2 4 0 14 -5 22 -8 13 -10 13
-18 1 -11 -16 -16 6 -31 129 -13 112 -14 107 20 119 30 10 50 43 50 82 0 28
-19 23 -38 -11 -20 -35 -31 -37 -64 -10 -31 24 -28 58 8 91 29 27 30 50 4 74
-20 18 -44 16 -102 -6 -39 -16 -54 -60 -34 -100 18 -37 19 -39 7 -57 -6 -11
-16 -8 -46 12 -46 32 -58 32 -84 4 -19 -20 -22 -20 -38 -5 -31 27 -67 31 -88
7 -17 -19 -20 -19 -43 -4 -13 9 -35 14 -48 11 -21 -4 -24 0 -24 23 0 15 7 33
15 40 18 15 20 51 3 68 -17 17 -70 15 -94 -3 -10 -8 -30 -15 -45 -15 -39 0
-49 -18 -49 -87 0 -67 -8 -75 -44 -48 -30 23 -57 18 -93 -17 l-33 -32 0 78 c0
89 -15 127 -63 156 -18 11 -25 20 -16 20 9 0 33 -15 54 -33 37 -32 39 -38 43
-101 4 -64 5 -66 23 -50 18 16 53 16 92 -1 15 -6 17 -1 17 37 0 54 22 88 58
88 15 0 36 7 46 15 11 8 39 15 63 15 35 0 46 -5 60 -26 16 -24 16 -28 -2 -60
-10 -19 -16 -35 -14 -37 29 -21 64 -26 95 -15 24 8 42 9 67 1 26 -8 38 -7 52
3 25 19 44 18 87 -4 l36 -19 -15 35 c-30 73 23 132 120 132 45 0 60 -9 71 -45
5 -18 -5 -40 -46 -97 -10 -15 -9 -20 7 -32 28 -21 31 -20 45 14 7 17 17 30 22
30 7 0 8 23 4 63 -3 34 -9 95 -12 136 -7 67 -9 75 -37 91 -29 18 -29 18 -6 22
21 3 22 7 20 73 -1 38 -5 73 -7 77 -6 10 -28 9 -179 -9z m172 -115 c-3 -8 -6
-5 -6 6 -1 11 2 17 5 13 3 -3 4 -12 1 -19z m-781 -6 c1 -7 0 -8 -3 -2 -3 8 -9
7 -19 -1 -11 -9 -14 -8 -14 6 0 19 32 17 36 -3z m34 8 c0 -5 -2 -10 -4 -10 -3
0 -8 5 -11 10 -3 6 -1 10 4 10 6 0 11 -4 11 -10z m524 -1 c-6 -10 -130 -6
-140 4 -3 3 28 5 70 5 42 0 73 -5 70 -9z m66 7 c0 -7 -40 -14 -44 -7 -3 4 6 8
20 9 13 1 24 0 24 -2z m-130 -51 c0 -14 -52 -14 -57 0 -1 6 11 10 27 11 17 1
30 -4 30 -11z m17 -7 c-3 -8 -6 -5 -6 6 -1 11 2 17 5 13 3 -3 4 -12 1 -19z
m55 4 c-4 -11 -6 -11 -13 0 -7 10 -9 11 -9 0 0 -7 -4 -10 -10 -7 -18 11 -10
25 14 23 16 -2 22 -7 18 -16z m38 8 c0 -5 -2 -10 -4 -10 -3 0 -8 5 -11 10 -3
6 -1 10 4 10 6 0 11 -4 11 -10z m44 1 c-9 -9 -34 -9 -34 -1 0 5 9 8 20 7 10
-1 17 -3 14 -6z m-717 -23 c-3 -8 -6 -5 -6 6 -1 11 2 17 5 13 3 -3 4 -12 1
-19z m63 14 c0 -4 -9 -8 -20 -9 -11 -1 -18 2 -15 8 7 11 35 12 35 1z m50 -2
c0 -13 -12 -19 -26 -13 -21 8 -17 22 6 20 11 -1 20 -4 20 -7z m380 0 c0 -5 -2
-10 -4 -10 -3 0 -8 5 -11 10 -3 6 -1 10 4 10 6 0 11 -4 11 -10z m256 -43 c3
-3 -10 -3 -28 -2 -48 4 -48 4 -48 14 0 8 66 -2 76 -12z m-156 -2 c0 -6 -14
-10 -32 -9 -51 3 -54 4 -40 12 19 13 72 10 72 -3z m60 4 c0 -5 -4 -7 -10 -4
-5 3 -10 1 -10 -5 0 -6 -4 -8 -10 -5 -17 10 -11 25 10 25 11 0 20 -5 20 -11z
m-624 -6 c-10 -11 -36 -12 -36 -2 0 5 10 9 22 9 12 0 18 -3 14 -7z m44 -3 c0
-5 -4 -10 -10 -10 -5 0 -10 5 -10 10 0 6 5 10 10 10 6 0 10 -4 10 -10z m40 6
c0 -3 -4 -8 -10 -11 -5 -3 -10 -1 -10 4 0 6 5 11 10 11 6 0 10 -2 10 -4z m672
-199 c-12 -13 -22 -31 -22 -40 0 -23 -12 -21 -27 3 -18 27 -6 49 31 58 40 12
44 7 18 -21z m-492 -2 c-10 -12 -12 -55 -7 -188 7 -191 4 -217 -25 -217 -10 0
-16 -4 -13 -10 7 -12 -5 -13 -22 -2 -9 6 -14 59 -16 182 -4 188 -1 214 19 206
7 -3 20 6 28 20 9 13 24 24 32 24 14 0 14 -3 4 -15z m232 -145 c27 -37 43 -38
65 -2 9 15 18 29 19 30 1 2 11 1 22 -2 29 -10 39 -47 52 -181 6 -65 16 -122
21 -126 7 -4 5 -18 -8 -42 l-18 -36 -29 25 c-27 23 -29 31 -37 142 -12 138
-13 142 -38 142 -10 0 -21 -6 -23 -12 -9 -23 8 -206 19 -220 9 -10 7 -21 -9
-46 l-21 -33 -27 26 c-26 25 -28 33 -35 151 -7 130 -16 152 -50 124 -13 -11
-14 -31 -9 -119 4 -58 11 -112 17 -118 7 -10 4 -13 -9 -15 -11 0 -26 -2 -34
-3 -24 -2 -60 17 -53 28 9 15 3 230 -7 242 -6 7 0 22 15 40 l25 30 19 -23 c11
-12 21 -27 23 -33 6 -18 37 2 50 32 16 37 32 37 60 -1z m266 10 c22 -18 25
-28 23 -68 -2 -41 10 -147 24 -222 2 -14 -2 -34 -10 -44 -15 -19 -16 -19 -45
9 -16 15 -27 32 -24 36 3 5 0 57 -6 116 -9 82 -16 112 -29 123 -17 14 -17 16
2 42 25 33 31 34 65 8z m-640 -34 c12 -4 20 -11 18 -14 -11 -18 -17 -241 -7
-259 12 -23 -3 -45 -24 -37 -7 3 -16 0 -21 -7 -4 -7 -3 -10 3 -6 5 3 10 0 10
-8 0 -23 -13 -18 -36 13 l-21 27 -34 -36 c-31 -33 -37 -36 -58 -25 -33 17 -42
65 -33 197 l7 116 32 11 c18 7 46 25 62 41 28 29 29 29 54 11 14 -9 35 -21 48
-24z m-254 -193 c-7 -42 -14 -56 -14 -29 0 9 -4 14 -10 11 -13 -8 -13 -2 2 30
17 37 30 30 22 -12z m864 -154 c3 -8 1 -11 -3 -7 -5 4 -14 3 -21 -3 -9 -8 -11
-5 -7 11 6 23 24 22 31 -1z m-133 -19 c17 -22 17 -23 1 -8 -18 16 -20 15 -38
-5 -19 -22 -19 -22 -3 11 9 19 17 32 18 30 1 -1 11 -14 22 -28z m-668 -39 c30
-15 68 -14 83 4 16 19 20 19 50 -5 l25 -21 -27 12 c-23 10 -31 9 -46 -4 -10
-10 -28 -17 -39 -17 -27 0 -82 39 -101 70 l-14 25 23 -26 c13 -15 34 -32 46
-38z m524 42 c8 -9 9 -14 3 -10 -6 3 -18 -3 -27 -14 -9 -10 -21 -19 -27 -19
-5 0 -1 9 10 20 11 11 20 25 20 30 0 14 6 12 21 -7z m429 -107 c0 -7 -7 -13
-15 -13 -17 0 -17 0 -9 21 7 18 24 12 24 -8z m46 11 c4 -4 2 -7 -5 -7 -7 0 -9
-4 -6 -10 3 -5 -1 -10 -9 -10 -9 0 -16 8 -16 19 0 18 21 23 36 8z m-540 -22
c-3 -14 0 -25 5 -25 5 0 2 -11 -7 -25 -9 -14 -20 -22 -26 -19 -5 4 -5 11 1 18
8 9 5 12 -12 12 -16 -1 -22 5 -22 19 0 15 6 19 23 18 14 -2 22 3 22 12 0 8 5
15 10 15 6 0 8 -11 6 -25z m145 3 c1 -17 3 -18 6 -6 4 18 31 14 45 -6 5 -7 8
-3 8 8 0 15 3 16 15 6 12 -10 18 -10 29 -1 12 10 17 8 26 -9 6 -11 8 -25 5
-30 -9 -14 -49 -12 -63 2 -9 9 -12 9 -12 0 0 -8 -23 -12 -75 -12 -53 0 -75 4
-75 13 0 8 -4 7 -10 -3 -8 -12 -10 -9 -10 11 0 24 4 26 40 26 27 0 40 -4 43
-16 3 -9 5 -4 6 12 1 32 20 37 22 5z m-390 -15 c0 -27 1 -27 9 -5 5 12 14 22
20 22 5 0 10 -10 11 -22 l0 -23 9 23 c11 26 27 29 33 5 4 -14 5 -12 6 5 1 29
21 29 21 0 0 -21 1 -21 14 -3 13 18 14 18 25 -3 13 -24 3 -34 -32 -32 -12 1
-25 1 -29 0 -5 -1 -29 -2 -55 -2 -47 -1 -48 0 -51 31 -2 17 1 31 7 31 6 0 11
-12 12 -27z m479 -143 c-20 -13 -90 -13 -90 0 0 6 24 10 53 10 37 0 48 -3 37
-10z m75 0 c-28 -12 -37 -12 -30 0 3 6 16 10 28 9 21 0 21 -1 2 -9z m72 4 c-3
-3 -12 -4 -19 -1 -8 3 -5 6 6 6 11 1 17 -2 13 -5z m-797 -29 c4 3 10 -4 13
-14 3 -14 -1 -18 -17 -17 -18 1 -21 6 -17 26 2 14 6 19 9 12 2 -6 7 -10 12 -7z
m77 -22 c0 -8 -4 -9 -11 -4 -6 5 -15 9 -21 9 -5 0 -11 6 -13 14 -2 9 0 8 7 -2
9 -13 11 -12 11 3 0 14 3 15 13 5 8 -7 14 -18 14 -25z m583 15 c0 -5 5 -6 10
-3 6 3 10 2 10 -3 0 -6 -10 -9 -23 -8 -25 1 -34 23 -10 23 7 0 13 -4 13 -9z
m-90 -8 c0 -5 -5 -10 -11 -10 -5 0 -7 5 -4 10 3 6 8 10 11 10 2 0 4 -4 4 -10z
m180 2 c0 -5 -7 -9 -15 -9 -8 0 -15 4 -15 9 0 4 7 8 15 8 8 0 15 -4 15 -8z
m151 -114 c1 -18 3 -42 4 -53 1 -11 8 -94 14 -185 7 -91 14 -171 16 -177 2 -7
7 -75 10 -150 5 -126 4 -141 -14 -170 -37 -58 -81 -71 -208 -59 -35 3 -63 2
-63 -3 0 -5 -9 -7 -20 -4 -11 3 -20 0 -20 -6 0 -6 -11 -11 -23 -11 -13 0 -27
-3 -31 -7 -14 -14 -160 -30 -203 -22 -23 5 -61 9 -85 10 -24 1 -66 10 -94 19
-28 9 -80 18 -115 19 -122 5 -190 37 -201 95 -7 37 24 605 37 688 3 19 -1 28
-13 32 -9 2 33 2 93 -1 158 -8 574 -5 680 5 50 5 123 10 163 11 l72 1 1 -32z
m-354 -1270 c7 -6 16 -8 20 -4 3 3 13 0 22 -8 9 -8 19 -15 24 -15 21 1 74 -14
92 -26 25 -16 103 -27 119 -18 6 4 20 9 30 10 11 2 24 7 30 12 6 5 32 12 57
16 63 9 127 -23 207 -105 111 -114 187 -255 198 -369 3 -31 7 -177 10 -326 2
-148 5 -277 5 -285 1 -8 22 -49 46 -90 88 -154 158 -379 188 -615 9 -66 21
-230 26 -365 10 -230 12 -341 23 -1065 11 -726 -64 -1089 -285 -1375 -32 -41
-73 -92 -92 -112 -27 -28 -34 -43 -29 -60 5 -21 4 -22 -13 -8 -17 14 -17 14
-2 -17 10 -18 17 -44 17 -58 0 -14 4 -33 9 -43 5 -9 15 -37 22 -62 7 -25 17
-51 23 -58 15 -21 10 -179 -7 -196 -10 -10 -49 -15 -140 -18 -70 -1 -127 0
-127 3 0 4 -10 9 -22 12 -21 5 -21 5 -5 -7 26 -20 20 -30 -8 -12 -37 25 -43
19 -7 -7 l32 -24 -70 1 c-39 1 -70 -3 -70 -7 0 -5 -4 -6 -9 -2 -11 6 -517 7
-721 0 -301 -9 -302 -9 -314 11 -15 28 -16 48 -3 56 9 6 9 8 0 8 -20 0 8 58
31 64 19 5 19 6 4 18 -10 7 -14 18 -10 23 12 18 82 55 103 55 10 0 19 3 19 8
0 8 49 32 67 32 7 0 13 4 13 9 0 5 24 12 53 16 110 15 114 18 50 35 -26 7 -61
18 -78 25 -16 7 -55 23 -85 36 -241 100 -459 322 -574 584 -92 210 -156 544
-156 817 0 86 1 88 20 76 17 -11 20 -24 20 -84 0 -91 17 -266 36 -374 71 -390
245 -677 520 -857 445 -290 1096 -224 1434 145 152 165 241 375 291 682 27
165 40 647 18 661 -11 7 -11 9 -1 9 7 0 11 4 8 8 -3 5 2 31 10 58 25 76 21
222 -6 278 -20 43 -20 47 -6 97 34 113 14 295 -40 366 -37 49 -67 45 -93 -14
-33 -76 -45 -96 -57 -100 -6 -2 -30 14 -54 35 -42 37 -43 39 -36 84 5 30 22
66 51 109 54 76 61 130 21 176 l-24 28 -67 -17 c-82 -22 -117 -49 -145 -112
-24 -54 -22 -104 5 -157 8 -15 15 -37 15 -48 0 -22 -30 -91 -40 -91 -3 0 -13
12 -22 28 -17 28 -87 77 -74 51 4 -8 2 -7 -6 2 -7 9 -26 19 -43 23 -22 5 -26
4 -15 -4 12 -8 10 -10 -10 -10 -14 0 -32 -5 -40 -11 -11 -7 -4 -8 25 -4 32 4
35 3 18 -4 -13 -6 -23 -16 -23 -23 0 -9 -3 -9 -10 2 -9 13 -13 12 -29 -8 -18
-20 -51 -22 -51 -2 0 16 -93 62 -126 62 -39 0 -59 -13 -80 -54 l-14 -28 -46
35 c-54 42 -87 51 -120 36 -14 -6 -28 -11 -32 -11 -5 0 -9 28 -10 63 -2 58 0
64 22 76 49 27 61 102 23 147 -21 24 -29 26 -90 25 -67 -1 -112 -16 -136 -45
-8 -10 -29 -14 -63 -14 -44 1 -54 -2 -75 -26 -22 -26 -23 -35 -23 -162 0 -74
-3 -134 -7 -134 -3 0 -39 20 -79 45 -39 25 -77 45 -83 45 -26 0 -69 -31 -80
-57 -6 -16 -27 -41 -46 -56 l-35 -28 0 154 c0 119 -4 163 -16 193 -24 56 -54
97 -103 138 -67 56 -115 46 -142 -32 -6 -18 -14 -32 -17 -32 -4 1 -22 21 -40
46 -27 37 -38 45 -60 42 -21 -2 -32 -14 -53 -56 -14 -28 -33 -58 -43 -65 -11
-8 -19 -31 -23 -62 -10 -103 -14 -53 -9 130 3 105 12 231 21 280 8 50 18 107
21 128 4 20 11 37 16 37 5 0 7 3 4 8 -6 11 17 105 49 192 33 91 75 173 131
260 l42 65 -4 294 c-3 256 2 361 21 461 14 74 101 187 200 260 77 57 140 76
205 61 35 -8 48 -7 61 5 8 7 21 14 27 14 7 0 20 4 30 9 43 22 97 39 187 59 61
14 266 14 282 0z m-929 -2200 c56 -59 62 -87 62 -303 0 -229 -8 -257 -93 -328
-27 -23 -57 -59 -67 -79 -16 -36 -17 -37 -38 -22 -12 8 -19 20 -16 26 4 6 3 8
-3 5 -15 -9 -29 32 -27 80 0 23 -2 40 -6 38 -4 -2 -7 1 -7 8 0 7 -3 19 -5 27
-3 8 -3 12 -1 8 9 -17 21 -7 16 13 -4 12 -11 18 -20 15 -9 -4 -17 1 -20 14 -7
28 -22 25 -17 -2 4 -21 3 -20 -7 2 -13 31 -17 158 -5 184 6 12 6 17 0 14 -5
-4 -10 13 -12 35 -1 31 1 38 8 27 5 -8 10 -10 10 -4 0 6 -3 14 -7 17 -3 4 -8
23 -10 43 -2 21 -9 46 -15 57 -8 16 -5 32 18 78 15 33 31 59 35 59 5 0 20 -27
36 -60 18 -40 33 -60 45 -60 20 0 61 51 83 103 8 20 19 37 23 37 5 0 22 -15
40 -32z m1736 -30 c-4 -7 -22 -34 -41 -59 -18 -26 -39 -73 -47 -105 -8 -33
-15 -51 -15 -41 -1 10 -10 35 -21 57 -37 73 -17 121 60 145 58 18 73 18 64 3z
m-967 -29 c-43 -25 -45 -41 -39 -484 2 -231 9 -428 14 -438 5 -9 6 -23 2 -30
-5 -8 -2 -7 9 2 34 27 16 -5 -25 -44 -23 -22 -38 -34 -34 -27 4 6 2 12 -4 12
-6 0 -8 5 -4 13 6 9 5 9 -7 0 -12 -10 -15 -9 -16 6 -1 12 5 17 20 16 25 -2 47
12 47 29 0 7 -3 7 -8 1 -9 -13 -42 -16 -42 -3 0 5 -4 6 -10 3 -6 -3 -7 1 -4 9
3 9 0 22 -8 29 -11 12 -16 12 -27 0 -7 -8 -16 -12 -19 -8 -4 3 0 10 8 15 13 8
12 10 -3 10 -10 0 -15 5 -12 10 3 6 0 10 -8 10 -8 0 -18 7 -21 16 -3 9 -9 192
-13 406 -7 419 -9 401 41 359 17 -15 19 -15 30 3 39 65 77 94 126 95 22 0 23
-1 7 -10z m-1120 -544 c0 -308 -2 -362 -7 -235 -10 230 -10 679 -1 655 5 -11
8 -200 8 -420z m1761 310 c-3 -3 -9 2 -12 12 -6 14 -5 15 5 6 7 -7 10 -15 7
-18z m-51 -19 c-4 -9 0 -13 11 -11 9 2 17 4 17 5 0 1 8 3 18 5 9 2 17 -1 17
-7 0 -6 -7 -7 -16 -4 -8 3 0 -9 19 -27 47 -44 55 -89 63 -361 6 -212 8 -229
25 -233 24 -7 24 -14 1 -44 -10 -13 -24 -38 -31 -56 -22 -55 -38 -61 -68 -25
-23 29 -74 47 -58 22 4 -6 12 -7 18 -4 8 5 8 3 0 -7 -18 -19 -41 4 -25 24 7 8
9 17 5 20 -3 4 -6 20 -5 36 0 17 -5 32 -14 35 -8 3 -14 13 -14 22 0 10 -5 14
-14 11 -8 -3 -17 1 -20 9 -10 26 -36 16 -36 -14 0 -21 5 -28 20 -28 11 0 20 4
20 8 0 4 5 8 11 8 5 0 7 -5 3 -12 -4 -6 -3 -8 4 -4 19 12 25 -16 6 -32 -17
-16 -17 -16 -5 1 8 9 10 17 5 17 -14 0 -53 -51 -77 -101 -12 -27 -24 -48 -27
-49 -3 0 -29 24 -58 53 l-53 54 -6 236 c-7 255 -8 261 -60 255 -48 -5 -54 -32
-48 -233 7 -212 9 -222 36 -230 20 -7 19 -9 -14 -44 -19 -20 -38 -46 -42 -58
-9 -31 -18 -29 -46 12 -13 19 -43 45 -66 57 -46 24 -51 38 -29 78 11 19 13 66
9 220 -5 190 -5 196 -29 217 -15 14 -20 24 -13 29 6 3 30 33 54 65 l43 59 35
-32 c19 -18 40 -49 47 -69 11 -30 17 -35 37 -31 25 5 59 44 88 102 10 19 19
36 20 38 2 2 22 -6 45 -18 33 -17 47 -32 63 -71 19 -45 37 -64 37 -38 0 5 4 8
9 5 10 -6 48 33 53 54 2 8 9 21 17 29 11 12 10 17 -5 28 -10 7 -12 13 -6 13 7
0 12 7 12 15 0 8 5 15 11 15 6 0 9 -6 6 -14z m588 -48 c30 -75 22 -151 -30
-277 -37 -92 -45 -121 -45 -175 0 -97 32 -148 69 -111 12 12 15 33 14 80 -1
36 2 65 7 65 10 0 15 -50 11 -100 -2 -29 -62 -160 -73 -160 -5 0 -8 5 -8 10 0
6 -8 10 -17 10 -14 0 -15 -2 -4 -9 11 -7 10 -11 -5 -19 -27 -14 -42 -5 -63 36
-34 67 -40 115 -42 337 l-2 220 34 7 c40 8 63 34 86 98 14 40 20 47 34 40 9
-5 24 -29 34 -52z m-639 43 c-3 -5 1 -14 9 -21 22 -18 18 -27 -10 -27 -14 0
-25 4 -25 9 0 5 5 6 10 3 7 -4 9 2 4 19 -4 17 -2 26 6 26 6 0 9 -4 6 -9z m414
-131 c-9 -17 -11 -86 -8 -258 3 -204 6 -237 20 -245 14 -10 13 -17 -15 -66
-39 -71 -37 -69 -49 -46 -6 11 -30 39 -54 62 -41 40 -43 43 -29 70 7 15 12 51
11 78 -1 28 -3 116 -4 197 -2 142 -3 147 -28 177 l-26 31 26 35 c14 18 26 36
26 40 0 3 7 17 17 31 l16 25 55 -54 c50 -50 53 -56 42 -77z m-1349 50 c34 -22
76 -45 94 -51 30 -11 31 -13 19 -37 -9 -17 -13 -81 -14 -215 -1 -175 -5 -223
-17 -189 -3 6 -14 12 -24 12 -11 0 -17 -4 -14 -10 3 -5 -1 -10 -9 -10 -10 0
-16 -10 -17 -27 -1 -18 -3 -21 -6 -10 -2 9 -8 15 -12 13 -25 -16 -31 17 -32
165 -1 85 0 172 2 194 4 36 1 40 -20 43 -13 2 -37 12 -55 23 -59 36 -58 40
-54 -203 3 -218 4 -224 27 -255 35 -47 57 -44 94 10 11 15 15 16 24 5 7 -9 6
-23 -3 -48 -13 -32 -14 -33 -8 -5 5 29 5 29 -10 10 -8 -11 -16 -16 -16 -11 0
6 -7 1 -15 -10 -8 -10 -15 -15 -15 -9 0 5 -7 -1 -16 -13 -8 -12 -20 -20 -25
-17 -5 4 -9 -2 -9 -12 0 -20 -29 -66 -30 -47 0 5 5 15 12 22 7 7 9 12 4 12
-12 0 -36 -27 -29 -34 4 -3 1 -6 -5 -6 -7 0 -12 5 -12 12 0 6 -3 8 -6 5 -13
-12 -44 14 -64 54 -19 36 -21 60 -23 285 l-2 245 52 18 c57 19 138 80 148 111
9 27 15 26 86 -20z m-617 -191 c-3 -6 0 -15 7 -20 11 -7 10 -9 -3 -9 -18 0
-24 20 -11 33 10 11 15 8 7 -4z m30 -94 c8 -19 22 -35 31 -35 9 0 13 -4 10
-10 -8 -12 -42 8 -48 30 -3 8 -8 23 -12 33 -4 9 -4 17 -1 17 3 0 12 -16 20
-35z m29 -65 c18 0 19 -2 7 -10 -16 -10 -41 5 -39 24 0 7 2 6 6 -1 2 -7 14
-13 26 -13z m216 -330 c13 -25 30 -53 38 -62 8 -9 12 -22 7 -29 -4 -7 -3 -10
4 -5 6 3 13 2 17 -4 3 -5 -1 -10 -10 -10 -9 0 -21 13 -26 30 -6 16 -15 27 -20
24 -5 -3 -8 -2 -7 3 1 4 -6 21 -16 36 -11 15 -19 41 -20 57 -1 17 -4 30 -8 30
-5 0 -8 42 -8 92 l0 93 -25 -27 c-14 -15 -25 -35 -25 -45 0 -10 -5 -25 -10
-33 -7 -11 -10 -5 -10 23 0 22 8 51 19 65 10 15 24 44 30 64 7 20 17 39 24 41
9 3 13 -37 17 -147 5 -133 8 -156 29 -196z m-201 243 c-4 -26 -4 -26 -16 12
-9 31 -9 41 1 47 14 9 20 -17 15 -59z m649 -110 c-4 -3 -3 -11 3 -17 6 -8 3
-12 -11 -12 -10 0 -19 3 -19 6 0 7 22 30 29 30 2 0 1 -3 -2 -7z m-560 -50 c-3
-10 -5 -4 -5 12 0 17 2 24 5 18 2 -7 2 -21 0 -30z m473 17 c0 -5 -4 -10 -10
-10 -5 0 -10 5 -10 10 0 6 5 10 10 10 6 0 10 -4 10 -10z m-566 -16 c3 -8 2
-12 -4 -9 -6 3 -10 10 -10 16 0 14 7 11 14 -7z m796 -8 c0 -2 -7 -7 -16 -10
-8 -3 -12 -2 -9 4 6 10 25 14 25 6z m676 -11 c-8 -8 -18 -15 -22 -15 -3 0 -1
7 6 15 7 8 17 15 22 15 5 0 3 -7 -6 -15z m-1358 -42 c2 -20 -1 -24 -9 -16 -7
7 -9 19 -6 27 9 23 12 20 15 -11z m1672 -63 c34 -49 46 -60 69 -60 28 0 53 20
64 53 4 9 14 17 24 16 11 0 13 -3 5 -6 -6 -2 -10 -9 -6 -14 3 -5 0 -9 -5 -9
-6 0 -11 -7 -11 -15 0 -24 -53 -66 -80 -63 -25 3 -25 2 -33 -92 -26 -321 -180
-573 -422 -690 -274 -133 -576 -96 -827 102 -104 82 -217 267 -258 423 -21 80
-39 289 -23 270 4 -5 17 -15 28 -21 23 -13 33 -42 34 -100 2 -63 47 -208 94
-299 52 -101 181 -234 274 -283 233 -122 479 -117 693 15 36 23 64 46 62 52
-1 6 1 10 5 9 14 -4 57 34 119 107 34 41 109 197 129 270 10 36 18 116 21 200
l4 140 -19 -40 c-11 -22 -40 -56 -65 -75 -25 -18 -46 -40 -46 -47 0 -7 -6 -13
-14 -13 -25 0 -45 -29 -41 -58 2 -15 4 -31 4 -36 1 -4 8 -6 16 -3 11 5 13 0 8
-23 -3 -19 -1 -30 6 -30 6 0 11 -4 11 -10 0 -5 -9 -10 -19 -10 -12 0 -21 -9
-25 -25 -5 -20 -10 -24 -23 -16 -11 6 -21 5 -30 -4 -15 -16 -18 -59 -3 -50 5
3 7 0 4 -8 -5 -15 22 -31 37 -21 5 3 10 -5 10 -18 2 -36 -2 -52 -17 -69 -8 -8
-14 -23 -14 -32 0 -8 -12 -25 -27 -37 -26 -20 -28 -20 -40 -4 -16 22 -17 44
-2 44 5 0 8 -4 5 -8 -3 -5 5 -8 16 -7 29 2 48 32 29 44 -9 6 -14 24 -13 48 2
36 0 39 -26 40 -15 0 -19 -1 -9 -4 31 -8 18 -93 -16 -93 -4 0 -6 3 -4 8 3 4
-6 8 -19 8 -14 1 -24 -4 -24 -11 0 -7 -6 -16 -12 -19 -9 -4 -8 -5 2 -5 40 3
50 -2 50 -24 0 -13 4 -27 10 -33 6 -6 3 -10 -10 -11 -11 -1 -20 4 -20 10 0 8
-3 7 -9 -2 -5 -8 -18 -12 -30 -8 -11 3 -37 1 -56 -3 -28 -6 -38 -5 -42 6 -4
11 -9 12 -19 3 -23 -19 -44 -3 -44 33 0 33 14 29 23 -7 4 -15 5 -13 6 8 1 29
21 38 21 10 1 -17 1 -17 11 0 5 9 16 17 24 17 8 0 19 -8 25 -17 11 -17 11 -17
6 0 -3 9 0 17 7 18 9 0 9 2 -1 6 -6 2 -10 9 -7 14 4 5 0 6 -8 3 -9 -3 -22 4
-31 18 -9 12 -16 17 -16 10 0 -19 -20 -14 -21 6 -1 14 -2 14 -6 1 -2 -10 -15
-16 -32 -17 -24 0 -28 3 -24 21 3 15 0 13 -9 -7 -11 -23 -16 -26 -24 -15 -6 8
-14 21 -17 29 -4 10 -6 7 -6 -7 -1 -24 -21 -33 -21 -10 0 9 -2 9 -8 -1 -5 -7
-22 -14 -38 -15 -26 -2 -29 1 -32 31 -3 27 0 32 19 32 18 0 19 -2 9 -15 -10
-12 -10 -15 1 -15 11 0 11 -2 -1 -10 -13 -8 -12 -10 3 -10 12 0 17 8 17 25 0
20 5 25 26 25 14 0 22 4 19 10 -3 6 1 7 9 4 9 -3 16 -13 16 -21 0 -11 6 -10
26 6 18 14 31 18 39 11 14 -12 78 4 95 25 10 12 10 18 0 30 -7 8 -17 12 -23 8
-6 -4 -7 -1 -2 7 13 21 -17 30 -53 14 -19 -7 -39 -11 -45 -7 -6 4 -7 1 -1 -8
15 -25 14 -46 -2 -25 -14 20 -14 20 -29 0 -15 -18 -15 -17 -13 16 2 27 0 34
-12 31 -8 -1 -29 -4 -47 -6 -24 -3 -30 0 -26 11 7 18 -7 18 -21 -1 -15 -19
-107 -7 -114 15 -4 12 -2 13 9 3 7 -7 18 -13 24 -13 5 0 2 5 -7 11 -20 11 -24
54 -8 64 6 4 8 15 5 26 -5 14 0 22 17 28 15 7 17 10 7 10 -22 1 -41 -23 -33
-42 3 -8 1 -17 -4 -21 -15 -9 -6 55 9 65 8 6 32 8 54 5 l40 -5 -25 21 c-14 11
-25 25 -25 32 0 6 -10 15 -22 21 -25 11 -31 35 -10 35 9 0 13 12 13 34 -1 19
-3 34 -6 33 -16 -6 -12 16 9 43 l23 32 24 -28 c13 -16 23 -34 24 -39 0 -6 14
-19 31 -29 59 -35 128 1 144 74 4 17 9 30 12 30 4 0 32 -25 64 -56 51 -48 63
-55 90 -50 41 6 74 43 56 64 -10 13 -9 15 6 9 10 -4 16 -3 14 1 -3 4 4 15 14
25 17 18 18 18 40 -7 12 -14 31 -26 40 -26 10 0 21 -5 25 -12 5 -8 2 -9 -9 -5
-24 9 -21 -1 6 -24 45 -37 91 -15 127 61 13 28 27 50 31 50 5 0 27 -27 49 -60z
m-318 28 c-7 -7 -12 -8 -12 -2 0 6 3 14 7 17 3 4 9 5 12 2 2 -3 -1 -11 -7 -17z
m-32 -14 c0 -8 -19 -13 -24 -6 -3 5 1 9 9 9 8 0 15 -2 15 -3z m181 -31 c13
-16 12 -17 -3 -4 -17 13 -22 21 -14 21 2 0 10 -8 17 -17z m364 -13 c17 -19 17
-20 0 -20 -10 0 -15 3 -12 7 4 3 2 12 -4 20 -18 21 -4 15 16 -7z m-1890 -11
c-4 -5 -12 -9 -18 -8 -9 0 -8 2 1 6 6 2 9 10 6 15 -4 7 -2 8 5 4 6 -4 9 -12 6
-17z m852 -66 c-6 -21 -20 -45 -31 -54 -14 -12 -16 -20 -9 -35 6 -10 13 -48
17 -84 5 -51 3 -70 -10 -88 -17 -24 -43 -29 -62 -10 -9 9 -15 9 -24 0 -7 -7
-21 -12 -32 -11 -18 1 -17 2 4 8 18 5 26 15 28 34 4 35 20 35 24 0 2 -22 8
-28 27 -28 13 0 26 7 28 15 4 12 3 13 -5 1 -15 -21 -42 -5 -42 24 0 35 -32 30
-40 -5 -4 -16 -13 -25 -25 -25 -18 0 -20 7 -20 85 0 69 3 85 16 88 8 1 21 -7
27 -20 12 -23 12 -23 6 2 -4 14 -3 22 1 18 4 -4 14 -1 22 7 8 8 22 15 32 15
25 0 55 36 47 56 -5 13 14 40 31 44 0 0 -4 -17 -10 -37z m-127 -72 c0 -4 -11
-6 -25 -3 -14 2 -25 6 -25 8 0 2 11 4 25 4 14 0 25 -4 25 -9z m-63 -73 c-2
-13 -4 -5 -4 17 -1 22 1 32 4 23 2 -10 2 -28 0 -40z m0 -80 c-2 -13 -4 -5 -4
17 -1 22 1 32 4 23 2 -10 2 -28 0 -40z m1085 -80 c-6 -6 -7 0 -4 19 5 21 7 23
10 9 2 -10 0 -22 -6 -28z m102 -31 c-7 -42 10 -45 18 -3 1 11 9 21 17 24 11 4
13 -4 7 -37 -8 -50 9 -56 18 -6 8 39 26 48 26 13 -1 -25 -16 -97 -22 -104 -3
-2 -28 6 -57 18 -52 23 -53 23 -47 60 9 54 24 90 36 83 6 -4 7 -24 4 -48z
m-1043 -67 c6 0 7 5 4 10 -3 6 -1 10 4 10 6 0 10 -11 9 -24 -2 -19 -5 -22 -15
-14 -9 7 -13 7 -13 -1 0 -6 -4 -11 -8 -11 -5 0 -6 15 -3 33 3 19 6 25 9 15 2
-10 8 -18 13 -18z m69 20 c0 -5 -6 -10 -12 -10 -9 0 -8 -4 2 -10 13 -9 13 -10
0 -10 -13 0 -13 -1 0 -10 18 -11 7 -25 -15 -17 -15 6 -21 48 -8 60 10 11 33 8
33 -3z m57 -22 c2 -14 -1 -29 -6 -32 -18 -12 -37 5 -35 32 2 35 1 34 21 30 9
-2 18 -15 20 -30z m790 -33 c-2 -55 -4 -63 -14 -48 -16 21 -16 13 -2 -24 6
-15 9 -28 7 -28 -1 0 8 -16 22 -35 13 -19 17 -30 9 -23 -9 8 -20 9 -29 3 -13
-9 -12 -11 6 -9 3 0 12 -8 21 -18 8 -10 11 -12 7 -4 -5 9 -3 12 4 7 7 -4 12
-12 12 -17 0 -5 16 -23 35 -40 37 -33 39 -37 27 -56 -10 -16 -54 -5 -45 11 3
6 -4 2 -16 -9 -12 -11 -18 -21 -12 -23 6 -2 8 -8 5 -13 -3 -6 0 -16 6 -24 16
-20 9 -60 -12 -60 -9 0 -20 -4 -25 -9 -4 -5 -3 -6 3 -3 7 4 15 -1 19 -10 3
-10 1 -19 -4 -21 -6 -2 -8 -8 -5 -13 3 -6 1 -16 -5 -23 -9 -11 -18 -40 -20
-69 -1 -5 -6 -5 -12 -1 -7 4 -7 -1 1 -16 10 -18 14 -20 21 -9 5 8 9 10 9 6 0
-5 -9 -20 -20 -34 -26 -33 -26 -53 -1 -48 28 5 17 -15 -24 -45 -19 -14 -35
-29 -35 -35 -1 -27 -155 -130 -250 -167 -79 -31 -92 -35 -152 -47 -45 -8 -69
1 -30 11 18 5 28 48 11 48 -16 0 -10 29 9 39 9 6 11 11 5 11 -7 0 -13 5 -13
11 0 6 7 9 15 6 11 -5 12 -1 5 18 -5 14 -8 30 -6 37 1 7 1 10 -1 6 -3 -5 -13
-8 -24 -8 -10 0 -19 -6 -19 -14 0 -7 -9 -16 -20 -19 -23 -6 -25 13 -14 121 6
55 9 62 35 71 25 8 28 7 39 -20 13 -31 24 -36 36 -17 4 7 3 8 -4 4 -18 -11
-14 20 4 39 9 9 14 18 11 21 -3 3 -15 -4 -26 -15 -14 -14 -21 -17 -21 -7 0 7
7 19 15 26 15 13 12 30 -6 30 -6 0 -7 -6 -3 -12 5 -10 4 -10 -6 -1 -14 13 -5
33 16 33 8 0 14 5 14 10 0 6 -3 10 -7 10 -5 0 -9 11 -9 25 -1 15 3 25 12 25
17 0 18 12 2 29 -11 10 -9 11 6 5 12 -5 17 -4 13 2 -3 6 22 27 56 46 147 86
250 199 329 359 24 49 44 89 45 89 2 0 2 -29 0 -65z m-1114 41 c3 -8 0 -17 -8
-20 -9 -3 -13 2 -12 15 2 22 13 25 20 5z m27 -18 c0 -21 -3 -29 -10 -22 -5 5
-7 19 -4 32 9 31 14 27 14 -10z m60 13 c0 -22 -25 -45 -40 -36 -11 7 -14 38
-3 48 14 15 43 7 43 -12z m70 6 c0 -7 -9 -18 -20 -25 -18 -11 -20 -10 -20 13
0 18 5 25 20 25 11 0 20 -6 20 -13z m741 -1 c-6 -7 -9 -22 -5 -32 5 -18 5 -18
-6 -1 -13 20 -7 47 11 47 9 0 9 -3 0 -14z m-1393 -85 c18 -58 15 -89 -9 -101
-24 -13 -46 0 -60 37 -7 19 -14 22 -34 17 -46 -11 -28 24 28 56 28 16 55 30
58 30 3 0 11 -17 17 -39z m1738 -1 c53 -37 59 -68 14 -76 -35 -8 -36 -11 -10
-39 13 -14 16 -25 10 -35 -8 -13 -13 -13 -37 3 -15 10 -35 20 -43 23 -9 3 -21
14 -28 24 -15 24 8 50 44 50 29 0 32 16 4 25 -13 4 -20 15 -20 31 0 31 12 30
66 -6z m-356 6 c0 -11 -19 -15 -25 -6 -3 5 1 10 9 10 9 0 16 -2 16 -4z m-692
-35 c9 -27 8 -29 -14 -27 -27 1 -29 8 -14 37 14 25 16 24 28 -10z m62 14 c16
-20 5 -45 -20 -45 -16 0 -20 7 -20 30 0 33 19 40 40 15z m65 -5 c8 -26 -1 -40
-26 -40 -14 0 -19 7 -19 30 0 23 5 30 19 30 11 0 22 -9 26 -20z m55 9 c0 -5
-6 -7 -12 -3 -9 5 -9 2 1 -9 12 -15 11 -17 -5 -18 -18 0 -18 -1 1 -9 19 -8 19
-9 -1 -9 -17 -1 -23 6 -26 29 -4 26 -1 30 19 30 13 0 23 -5 23 -11z m55 -19
c0 -18 -6 -26 -22 -28 -20 -3 -23 1 -23 28 0 27 3 31 23 28 16 -2 22 -10 22
-28z m73 0 c1 -25 -3 -30 -24 -30 -24 0 -35 19 -11 21 10 0 10 2 0 6 -22 8
-14 33 10 33 20 0 24 -5 25 -30z m-463 -10 c-6 -9 -9 -9 -16 1 -10 17 0 34 13
21 6 -6 7 -16 3 -22z m21 -18 c-11 -10 -15 4 -8 28 l7 25 3 -23 c2 -13 1 -26
-2 -30z m31 22 c1 -18 -2 -23 -9 -16 -6 6 -8 18 -5 26 9 22 12 20 14 -10z m33
1 c0 -14 -3 -25 -7 -25 -5 0 -8 11 -8 25 0 14 3 25 8 25 4 0 7 -11 7 -25z
m676 -53 c-10 -2 -22 0 -28 6 -6 6 0 7 19 4 21 -5 23 -7 9 -10z m-32 -10 c3
-5 -1 -9 -9 -9 -8 0 -12 4 -9 9 3 4 7 8 9 8 2 0 6 -4 9 -8z m-1195 -56 c36
-57 24 -106 -26 -106 -16 0 -27 -8 -34 -27 -7 -18 -13 -23 -20 -16 -8 8 -7 22
2 47 15 41 7 56 -22 38 -16 -10 -20 -10 -25 3 -5 13 15 36 75 82 23 18 27 16
50 -21z m942 5 c1 8 5 3 9 -11 15 -48 13 -50 -46 -46 -30 2 -57 6 -60 9 -8 8
19 47 33 47 7 0 13 -9 13 -19 0 -22 16 -36 24 -22 4 5 1 11 -6 13 -7 3 -9 12
-5 22 6 15 10 16 22 6 12 -10 15 -10 16 1z m-224 -28 l11 -28 1 29 c1 24 3 26
16 16 8 -6 18 -9 23 -7 4 3 14 2 22 -4 13 -7 12 -9 -2 -9 -10 0 -18 -5 -18
-11 0 -5 3 -8 8 -6 4 3 16 1 27 -3 12 -5 -10 -8 -57 -7 -43 1 -78 2 -78 4 0
12 21 53 28 53 4 0 13 -12 19 -27z m-616 -124 c21 -27 28 -44 22 -50 -7 -7
-19 0 -36 20 -19 23 -28 27 -35 18 -8 -9 -5 -20 8 -37 21 -27 26 -50 11 -50
-5 0 -16 12 -26 26 -13 20 -19 23 -30 14 -12 -10 -11 -17 11 -45 33 -43 12
-60 -22 -19 -46 54 -46 56 3 112 25 28 49 52 53 52 5 0 23 -18 41 -41z m79
-129 l0 -50 34 17 c19 9 41 13 50 10 14 -5 12 -12 -12 -49 -53 -83 -61 -93
-72 -82 -8 8 -5 22 11 49 22 37 22 38 1 26 -32 -17 -40 -13 -44 22 l-3 32 -20
-33 c-19 -32 -41 -38 -39 -10 2 24 74 129 84 123 6 -3 10 -28 10 -55z m168
-79 c-47 -110 -63 -141 -70 -141 -20 0 -17 31 11 93 23 51 34 65 46 61 9 -4
15 -10 13 -13z m68 -36 c3 -8 -1 -36 -10 -62 -19 -56 -19 -48 -1 -67 24 -24
44 -8 61 50 17 58 23 67 42 55 17 -10 -24 -128 -49 -142 -36 -19 -99 16 -99
54 0 30 32 127 42 127 5 0 11 -7 14 -15z m195 -94 l16 -43 30 38 c19 24 35 35
45 32 13 -5 13 -16 2 -85 -7 -43 -13 -79 -13 -80 -1 -2 -8 -3 -17 -3 -14 0
-16 8 -12 49 l5 50 -19 -25 c-25 -31 -36 -30 -44 1 -8 33 -24 32 -24 -2 0 -38
-16 -61 -30 -47 -9 9 -9 31 1 88 14 90 33 99 60 27z m307 23 c25 -17 30 -65 9
-83 -8 -6 -28 -14 -46 -17 -27 -6 -32 -11 -29 -33 2 -20 -2 -27 -19 -29 -21
-3 -23 1 -23 36 0 22 -3 60 -6 85 l-7 46 34 4 c19 2 41 5 49 5 9 1 26 -5 38
-14z"/>
<path d="M3620 7750 c0 -5 5 -10 11 -10 5 0 7 5 4 10 -3 6 -8 10 -11 10 -2 0
-4 -4 -4 -10z"/>
<path d="M3250 7928 c0 -40 -3 -89 -6 -108 -4 -27 -1 -42 14 -60 17 -21 22
-22 36 -11 12 10 16 33 17 100 0 47 4 95 8 106 7 16 2 22 -22 33 -16 6 -33 12
-38 12 -5 0 -9 -33 -9 -72z"/>
<path d="M3365 7750 c6 -30 16 -40 12 -12 -2 12 -6 24 -10 28 -3 4 -4 -4 -2
-16z"/>
<path d="M3570 5133 c-187 -29 -295 -60 -412 -119 -309 -157 -520 -449 -596
-829 -26 -124 -45 -287 -40 -340 l3 -40 17 36 c39 87 80 101 133 45 l32 -34
17 33 c20 38 64 60 98 51 13 -3 47 -26 76 -51 34 -31 53 -42 56 -33 2 7 14 47
26 88 70 238 250 430 480 511 91 32 254 53 345 43 260 -27 454 -162 570 -399
24 -49 52 -121 61 -160 10 -38 21 -73 24 -78 4 -4 23 -1 43 8 60 25 111 20
140 -14 50 -60 43 -149 -20 -241 -16 -25 -33 -59 -36 -76 -5 -26 -1 -34 24
-53 17 -13 32 -21 34 -19 2 2 13 26 25 53 39 91 71 106 123 58 l30 -28 -7 220
c-8 312 -43 526 -116 727 -128 351 -404 570 -799 634 -78 13 -269 17 -331 7z
m525 -125 c57 -19 100 -38 155 -69 85 -49 154 -105 119 -97 -8 2 -17 6 -20 11
-3 4 -14 -2 -25 -14 -10 -13 -14 -19 -8 -16 16 9 31 -12 36 -51 4 -29 2 -33
-14 -29 -10 3 -21 0 -25 -5 -3 -6 -1 -8 4 -5 6 4 15 1 20 -6 14 -16 34 -77 25
-74 -4 1 -9 -2 -12 -8 -3 -5 5 -11 18 -13 13 -2 21 1 20 8 -2 7 5 14 15 15 14
3 16 0 7 -10 -8 -9 -8 -15 0 -20 15 -9 12 -43 -10 -109 -19 -57 -19 -60 -3
-79 17 -20 17 -20 -2 -13 -15 5 -17 4 -8 -5 15 -15 33 -3 33 21 0 13 -5 17
-15 14 -8 -4 -15 -1 -15 6 0 6 5 8 12 4 7 -5 9 -2 5 9 -4 11 -2 14 8 11 8 -3
14 -9 13 -12 -4 -31 5 -32 31 -3 16 18 34 30 40 26 17 -10 13 -21 -16 -55 -23
-27 -25 -35 -14 -52 6 -10 9 -28 6 -38 -5 -17 -7 -17 -30 6 -13 13 -30 24 -37
24 -9 0 -9 -3 2 -10 8 -5 10 -10 4 -10 -6 0 -10 -11 -9 -24 2 -13 -3 -36 -11
-50 -7 -15 -9 -24 -4 -21 14 9 12 -9 -2 -23 -9 -9 -9 -12 0 -12 7 0 12 -10 12
-21 0 -17 -8 -12 -37 27 -57 76 -112 132 -178 182 -63 47 -210 122 -241 122
-18 1 -18 1 0 15 11 8 14 15 7 15 -7 0 -9 5 -6 10 4 6 2 17 -5 25 -7 8 -7 15
-1 19 6 4 9 23 7 43 -2 28 1 37 17 41 15 4 18 10 12 36 -3 17 -7 43 -7 58 -1
17 -5 25 -12 21 -6 -4 -2 4 9 17 l20 23 -32 -18 c-26 -15 -33 -26 -33 -50 0
-39 -14 -60 -34 -52 -13 5 -15 16 -10 62 6 47 4 55 -10 55 -9 0 -16 7 -16 15
0 14 36 21 77 16 7 -1 22 3 32 9 13 7 22 7 26 0 9 -15 25 -12 25 5 0 8 -7 15
-16 15 -13 0 -14 3 -4 15 7 8 10 21 7 29 -4 10 0 12 15 8 14 -3 19 -1 14 6 -4
7 -14 12 -22 12 -8 0 -12 5 -9 10 3 6 -2 10 -12 10 -14 0 -15 2 -4 9 11 7 10
10 -5 15 -10 3 -1 3 21 0 22 -3 67 -15 100 -26z m-326 -164 c11 -31 21 -62 21
-70 0 -19 -26 -18 -34 1 -7 20 -43 19 -54 -1 -5 -9 -16 -14 -24 -13 -14 4 -13
11 3 62 23 72 26 77 48 77 13 0 25 -17 40 -56z m-181 -16 c15 -81 4 -93 -43
-48 l-34 33 6 -36 c4 -29 2 -37 -10 -37 -10 0 -18 18 -26 62 -14 81 1 94 46
41 l32 -37 -6 42 c-4 33 -2 42 9 42 10 0 18 -20 26 -62z m-273 -50 c-6 -35 -5
-41 6 -30 19 18 37 15 49 -9 9 -15 8 -24 -1 -35 -17 -20 -40 -17 -46 6 -8 31
-20 24 -27 -15 -4 -19 -12 -35 -17 -35 -6 0 -8 8 -6 18 3 9 11 42 17 72 13 58
18 70 26 70 3 0 3 -19 -1 -42z m-39 -14 c6 -24 -6 -43 -28 -44 -12 0 -30 41
-24 56 9 25 45 17 52 -12z m-109 -93 c28 -42 29 -55 3 -81 -29 -29 -55 -25
-79 14 -25 41 -26 63 -4 88 24 27 53 19 80 -21z m-142 -116 c27 -26 33 -73 13
-93 -33 -33 -98 9 -98 63 0 58 43 73 85 30z m-106 -149 c29 -29 39 -46 31 -51
-7 -4 -24 5 -41 21 -23 22 -29 24 -29 11 0 -9 -7 -17 -15 -17 -16 0 -20 35 -9
64 9 23 15 20 63 -28z m1508 -253 c18 -38 8 -41 -12 -4 -8 17 -12 31 -8 31 5
0 14 -12 20 -27z"/>
<path d="M4010 4939 c0 -5 5 -7 10 -4 6 3 10 8 10 11 0 2 -4 4 -10 4 -5 0 -10
-5 -10 -11z"/>
<path d="M3965 4889 c-5 -8 -5 -11 0 -7 4 4 13 0 20 -9 10 -13 13 -14 20 -2 5
8 5 11 0 7 -4 -4 -13 0 -20 9 -10 13 -13 14 -20 2z"/>
<path d="M4000 4790 c0 -5 5 -10 11 -10 5 0 7 5 4 10 -3 6 -8 10 -11 10 -2 0
-4 -4 -4 -10z"/>
<path d="M4316 4635 c4 -8 11 -15 16 -15 6 0 5 6 -2 15 -7 8 -14 15 -16 15 -2
0 -1 -7 2 -15z"/>
<path d="M3716 4835 c-3 -9 0 -15 9 -15 16 0 20 16 6 24 -5 3 -11 -1 -15 -9z"/>
<path d="M3336 4726 c3 -9 11 -16 16 -16 13 0 5 23 -10 28 -7 2 -10 -2 -6 -12z"/>
<path d="M3240 4755 c0 -8 5 -15 10 -15 6 0 10 7 10 15 0 8 -4 15 -10 15 -5 0
-10 -7 -10 -15z"/>
<path d="M3100 4661 c0 -29 36 -69 50 -55 9 9 8 19 -4 43 -18 34 -46 42 -46
12z"/>
<path d="M2965 4540 c-9 -14 22 -60 40 -60 24 0 26 17 4 44 -22 28 -34 32 -44
16z"/>
<path d="M3615 4410 c-227 -34 -423 -175 -525 -379 -55 -111 -96 -274 -79
-318 5 -13 9 -79 10 -146 0 -99 2 -118 12 -102 7 11 26 34 43 52 43 44 94 45
152 3 23 -16 46 -30 50 -30 5 0 6 38 4 85 -7 140 37 215 126 215 18 0 52 11
75 24 23 13 69 30 102 37 54 11 96 29 68 29 -6 0 -14 7 -17 16 -5 13 -1 15 18
10 37 -9 86 4 86 23 0 9 5 22 11 28 16 16 -6 67 -34 81 l-22 11 23 0 c20 1 34
31 13 31 -5 0 -4 11 2 25 7 14 16 25 20 25 5 0 5 4 2 10 -3 5 -1 18 5 27 10
16 11 16 6 1 -3 -9 -1 -31 4 -47 8 -30 -3 -45 -13 -18 -3 6 -6 -3 -6 -22 -1
-31 1 -33 27 -27 25 5 26 5 5 -6 -24 -11 -30 -32 -14 -42 5 -4 19 6 30 21 l20
28 -8 -32 c-10 -35 -6 -44 15 -36 9 3 12 14 8 32 l-5 26 17 -22 c9 -13 20 -23
25 -23 15 0 10 27 -6 34 -8 3 -15 10 -15 16 0 7 7 7 21 -1 17 -9 23 -8 30 2 6
11 0 15 -24 19 -33 5 -37 14 -23 58 6 18 4 22 -13 22 -15 0 -21 -7 -21 -22
l-1 -23 -12 21 c-7 12 -18 19 -24 17 -15 -5 -16 6 -4 26 5 8 19 12 33 9 21 -4
24 -1 20 18 -2 12 1 25 7 28 7 4 11 -1 11 -13 0 -31 20 -69 40 -74 24 -6 50
11 44 28 -4 8 -1 15 5 15 6 0 10 -6 8 -12 -1 -7 9 -14 22 -16 18 -3 22 0 18
12 -4 10 -1 13 9 9 15 -5 16 -3 18 65 1 23 -2 42 -8 42 -6 0 -5 5 2 12 9 9 7
14 -6 24 -16 12 -15 13 6 14 12 0 22 -5 22 -11 0 -5 5 -7 11 -3 12 7 -1 24
-22 28 -8 1 -25 9 -39 18 -14 9 -36 19 -50 22 -14 4 -54 13 -90 21 -69 16
-144 17 -225 5z m225 -351 c0 -6 -4 -7 -10 -4 -5 3 -10 11 -10 16 0 6 5 7 10
4 6 -3 10 -11 10 -16z"/>
<path d="M4080 4290 c0 -5 -6 -8 -12 -6 -7 1 -10 1 -5 -1 4 -3 7 -12 7 -20 0
-13 2 -13 17 -2 9 8 14 9 11 4 -4 -6 -3 -17 3 -25 7 -13 9 -12 10 3 1 9 2 23
3 30 2 12 -12 27 -26 27 -5 0 -8 -4 -8 -10z"/>
<path d="M4150 4246 c0 -2 8 -10 18 -17 15 -13 16 -12 3 4 -13 16 -21 21 -21
13z"/>
<path d="M4136 4221 c-3 -5 1 -11 9 -15 8 -3 15 -1 15 4 0 13 -18 22 -24 11z"/>
<path d="M4192 4197 c-18 -21 -11 -103 10 -116 22 -14 58 1 58 25 0 9 5 12 13
8 8 -5 8 -3 -1 7 -11 12 -16 10 -33 -10 -26 -32 -44 -21 -46 27 -2 33 2 41 17
44 15 2 16 5 5 15 -10 10 -15 10 -23 0z"/>
<path d="M4053 4180 c-25 -10 -29 -30 -12 -61 7 -14 7 -24 0 -32 -7 -9 -6 -17
1 -27 8 -12 9 -12 4 3 -3 9 -1 17 5 17 5 0 20 9 32 21 18 17 23 18 25 5 2 -8
10 -12 18 -9 7 3 11 9 8 14 -2 5 -1 17 5 26 19 37 -35 64 -86 43z m77 -19 c0
-18 -45 -38 -68 -30 -20 8 -28 20 -18 30 9 8 86 8 86 0z"/>
<path d="M3860 4110 c-14 -26 -8 -34 19 -25 25 7 27 18 7 34 -12 10 -17 8 -26
-9z"/>
<path d="M3942 4098 c5 -15 58 -24 58 -10 0 11 -24 22 -47 22 -8 0 -13 -6 -11
-12z"/>
<path d="M4280 4081 c0 -5 7 -15 17 -22 15 -13 15 -12 4 9 -12 23 -21 28 -21
13z"/>
<path d="M4090 4050 c-18 -12 -2 -12 25 0 13 6 15 9 5 9 -8 0 -22 -4 -30 -9z"/>
<path d="M4222 4030 c14 -22 24 -19 15 5 -4 8 -11 15 -17 15 -6 0 -6 -7 2 -20z"/>
<path d="M4309 4038 c-1 -5 -2 -12 -3 -18 0 -5 -11 -17 -24 -26 l-23 -16 21
-23 22 -24 -22 6 c-28 7 -33 23 -21 56 7 17 7 27 1 27 -6 0 -10 -7 -10 -15 0
-12 -7 -14 -27 -9 -24 6 -25 5 -12 -8 8 -9 17 -14 22 -11 7 4 9 -5 12 -52 1
-16 7 -20 30 -18 l30 2 -23 -19 c-14 -11 -20 -24 -16 -35 7 -17 31 -14 27 4
-2 6 1 11 7 11 5 0 7 -13 4 -30 -7 -32 -4 -33 46 -31 l25 1 -23 -10 c-19 -8
-21 -13 -13 -29 6 -10 7 -22 3 -26 -4 -5 -1 -5 6 -1 7 5 11 11 8 14 -3 3 4 12
15 20 18 13 20 21 15 61 -9 65 -71 226 -77 199z"/>
<path d="M3971 4014 c0 -11 3 -14 6 -6 3 7 2 16 -1 19 -3 4 -6 -2 -5 -13z"/>
<path d="M4175 4020 c3 -5 10 -10 16 -10 5 0 9 5 9 10 0 6 -7 10 -16 10 -8 0
-12 -4 -9 -10z"/>
<path d="M3925 4011 c-3 -5 -1 -12 5 -16 5 -3 10 1 10 9 0 18 -6 21 -15 7z"/>
<path d="M3890 3970 c0 -5 4 -10 9 -10 6 0 13 5 16 10 3 6 -1 10 -9 10 -9 0
-16 -4 -16 -10z"/>
<path d="M3784 3925 c-18 -14 -18 -14 9 -15 17 0 27 5 27 15 0 19 -11 19 -36
0z"/>
<path d="M3916 3928 c3 -5 10 -6 15 -3 13 9 11 12 -6 12 -8 0 -12 -4 -9 -9z"/>
<path d="M3800 3861 c-13 -26 -13 -51 1 -51 6 0 9 6 6 13 -2 6 2 18 10 26 13
12 14 11 8 -8 -6 -21 -5 -22 14 -12 12 7 21 14 21 17 0 3 -4 3 -9 0 -5 -3 -11
3 -14 14 -7 25 -23 26 -37 1z"/>
<path d="M3868 3863 c7 -3 16 -2 19 1 4 3 -2 6 -13 5 -11 0 -14 -3 -6 -6z"/>
<path d="M3725 3850 c-4 -6 -3 -16 3 -22 6 -6 12 -6 17 2 4 6 3 16 -3 22 -6 6
-12 6 -17 -2z"/>
<path d="M3835 3809 c-11 -17 1 -21 15 -4 8 9 8 15 2 15 -6 0 -14 -5 -17 -11z"/>
<path d="M4279 3760 c-11 -12 -15 -27 -11 -46 l5 -29 14 30 14 30 -4 -32 c-5
-46 10 -41 24 8 11 34 10 42 -2 50 -18 11 -21 11 -40 -11z"/>
<path d="M3790 3680 c0 -5 7 -10 16 -10 8 0 12 5 9 10 -3 6 -10 10 -16 10 -5
0 -9 -4 -9 -10z"/>
<path d="M4266 3597 c-3 -12 -1 -26 5 -32 7 -7 8 -4 4 8 -8 19 10 24 18 5 4
-10 6 -10 6 0 1 7 -5 20 -13 27 -12 12 -15 11 -20 -8z"/>
<path d="M3740 3599 c0 -5 5 -7 10 -4 6 3 10 8 10 11 0 2 -4 4 -10 4 -5 0 -10
-5 -10 -11z"/>
<path d="M3700 3569 c0 -5 9 -9 20 -9 11 0 20 4 20 8 0 4 -9 8 -20 9 -11 1
-20 -2 -20 -8z"/>
<path d="M4348 3535 c2 -14 8 -27 12 -30 4 -2 5 7 2 20 -2 14 -8 27 -12 30 -4
2 -5 -7 -2 -20z"/>
<path d="M3960 971 c-24 -7 -24 -7 9 -14 47 -10 51 -9 51 8 0 16 -19 18 -60 6z"/>
<path d="M2706 3615 c-8 -8 -18 -34 -21 -58 -11 -69 -1 -385 11 -397 6 -6 28
-15 48 -20 l37 -8 -3 235 c-3 219 -4 236 -22 249 -25 18 -31 18 -50 -1z"/>
<path d="M4115 3254 c-15 -12 -20 -27 -20 -67 -1 -69 4 -87 24 -87 14 -1 14
-2 -2 -14 -14 -11 -17 -29 -16 -105 1 -82 3 -91 20 -91 10 0 19 -4 19 -10 0
-5 9 -10 20 -10 11 0 20 5 20 11 0 5 -4 7 -10 4 -6 -3 -7 1 -4 9 3 9 11 13 18
9 6 -4 6 0 -2 9 -10 13 -10 17 0 21 8 3 2 9 -14 17 -16 7 -28 17 -28 22 0 5 5
6 11 3 6 -4 13 3 17 16 6 23 6 23 12 -6 4 -17 7 15 8 70 1 68 -3 102 -11 108
-9 7 -9 10 1 14 6 2 12 11 12 19 0 9 -5 12 -11 9 -6 -4 -9 4 -7 21 2 16 -1 29
-7 29 -5 0 -15 3 -20 7 -6 3 -19 0 -30 -8z m36 -21 c13 -16 12 -17 -3 -4 -17
13 -22 21 -14 21 2 0 10 -8 17 -17z m3 -49 c4 -15 2 -32 -3 -37 -8 -8 -11 -3
-11 16 0 17 -5 27 -15 27 -8 0 -15 5 -15 10 0 23 38 9 44 -16z m2 -104 c-1
-17 2 -30 7 -30 4 0 5 -4 2 -10 -13 -22 -25 -8 -23 28 0 22 -3 45 -7 53 -7 12
-6 12 7 1 9 -7 15 -25 14 -42z m-6 -155 c-9 -11 -9 -15 -1 -15 7 0 9 -5 5 -11
-10 -16 -28 6 -21 25 4 9 12 16 18 16 8 0 8 -4 -1 -15z"/>
<path d="M4719 3310 c-1 -10 -1 -78 0 -145 l2 -70 21 39 c24 46 21 118 -5 157
-10 13 -17 21 -18 19z"/>
<path d="M4738 2783 c-22 -5 -24 -20 -3 -20 8 0 16 6 19 14 3 7 4 12 3 12 -1
-1 -10 -3 -19 -6z"/>
<path d="M4685 2730 c3 -5 8 -10 11 -10 2 0 4 5 4 10 0 6 -5 10 -11 10 -5 0
-7 -4 -4 -10z"/>
<path d="M3247 2925 c3 -8 9 -12 14 -9 12 7 11 11 -5 17 -10 4 -13 1 -9 -8z"/>
<path d="M3218 2897 c7 -8 8 -18 4 -22 -4 -5 -1 -5 6 -1 17 10 15 23 -4 30
-13 5 -14 4 -6 -7z"/>
<path d="M3097 2764 c4 -10 0 -13 -13 -8 -17 6 -17 5 1 -9 11 -8 23 -13 27
-11 13 8 9 32 -6 37 -10 4 -13 1 -9 -9z"/>
<path d="M3663 2595 c4 -8 2 -17 -3 -20 -6 -4 -10 -11 -10 -16 0 -14 18 -2 30
21 7 14 6 19 -6 24 -12 4 -15 2 -11 -9z"/>
<path d="M3686 2539 c-16 -23 -11 -49 9 -49 7 0 16 -11 19 -25 5 -18 13 -25
29 -25 31 0 47 18 47 55 l-1 30 -14 -32 c-16 -36 -32 -42 -42 -15 -4 9 -12 21
-20 25 -15 9 -18 37 -3 37 6 0 10 5 10 10 0 17 -18 11 -34 -11z"/>
<path d="M4180 2536 c0 -9 5 -16 10 -16 6 0 10 4 10 9 0 6 -4 13 -10 16 -5 3
-10 -1 -10 -9z"/>
<path d="M4255 2530 c4 -6 11 -8 16 -5 14 9 11 15 -7 15 -8 0 -12 -5 -9 -10z"/>
<path d="M3920 2485 c-7 -9 -10 -18 -7 -21 3 -3 10 4 17 15 13 25 8 27 -10 6z"/>
<path d="M4190 2480 c0 -5 5 -10 10 -10 6 0 10 5 10 10 0 6 -4 10 -10 10 -5 0
-10 -4 -10 -10z"/>
<path d="M3808 2443 c7 -3 16 -2 19 1 4 3 -2 6 -13 5 -11 0 -14 -3 -6 -6z"/>
<path d="M3918 2443 c7 -3 16 -2 19 1 4 3 -2 6 -13 5 -11 0 -14 -3 -6 -6z"/>
<path d="M4176 2435 c4 -8 10 -12 15 -9 11 6 2 24 -11 24 -5 0 -7 -7 -4 -15z"/>
<path d="M4138 2403 c7 -3 16 -2 19 1 4 3 -2 6 -13 5 -11 0 -14 -3 -6 -6z"/>
<path d="M3812 2326 c2 -30 4 -33 20 -25 26 14 24 59 -2 59 -17 0 -20 -6 -18
-34z"/>
<path d="M4185 2339 c-4 -6 -4 -13 -1 -16 3 -4 6 -1 6 6 0 7 5 9 12 5 7 -4 8
-3 4 4 -9 15 -13 15 -21 1z"/>
<path d="M3850 2289 c0 -5 -5 -7 -12 -3 -7 4 -8 3 -4 -4 4 -6 13 -9 21 -5 17
6 20 23 5 23 -5 0 -10 -5 -10 -11z"/>
<path d="M4000 2280 c0 -21 11 -35 37 -49 31 -16 47 -14 74 10 l24 20 -25 -12
c-49 -25 -64 -22 -93 21 -10 15 -17 19 -17 10z"/>
<path d="M4192 2143 c5 -25 28 -28 28 -4 0 12 -6 21 -16 21 -9 0 -14 -7 -12
-17z"/>
<path d="M4035 2099 c-4 -6 -5 -12 -2 -15 2 -3 7 2 10 11 7 17 1 20 -8 4z"/>
<path d="M3573 2395 c0 -22 2 -30 4 -17 2 12 2 30 0 40 -3 9 -5 -1 -4 -23z"/>
<path d="M3510 2412 c0 -6 -8 -9 -17 -6 -15 5 -16 4 -3 -5 16 -11 40 3 27 16
-4 3 -7 1 -7 -5z"/>
<path d="M3571 2324 c0 -11 3 -14 6 -6 3 7 2 16 -1 19 -3 4 -6 -2 -5 -13z"/>
<path d="M4465 1980 c10 -11 20 -20 22 -20 2 0 -2 9 -9 20 -7 11 -17 20 -22
20 -5 0 -1 -9 9 -20z"/>
<path d="M4490 1839 c0 -4 6 -12 14 -18 11 -9 15 -8 20 5 3 8 6 17 6 18 0 1
-9 2 -20 2 -11 0 -20 -3 -20 -7z"/>
<path d="M4437 1423 c-4 -3 -7 -11 -7 -17 0 -6 5 -5 12 2 6 6 9 14 7 17 -3 3
-9 2 -12 -2z"/>
<path d="M3422 2134 c4 -21 22 -23 26 -1 2 10 -3 17 -13 17 -10 0 -15 -6 -13
-16z"/>
<path d="M2825 2040 c-3 -5 -1 -19 5 -30 9 -16 15 -19 25 -10 7 6 11 20 8 30
-6 21 -28 27 -38 10z"/>
<path d="M3600 2031 c0 -12 5 -21 10 -21 6 0 10 6 10 14 0 8 -4 18 -10 21 -5
3 -10 -3 -10 -14z"/>
<path d="M3660 2025 c0 -8 5 -15 10 -15 6 0 10 7 10 15 0 8 -4 15 -10 15 -5 0
-10 -7 -10 -15z"/>
<path d="M3776 2025 c4 -8 8 -15 10 -15 2 0 4 7 4 15 0 8 -4 15 -10 15 -5 0
-7 -7 -4 -15z"/>
<path d="M2897 1884 c-10 -10 12 -44 29 -44 10 0 14 8 12 22 -3 22 -27 35 -41
22z"/>
<path d="M3790 1413 c1 -19 19 -35 36 -31 29 5 23 33 -8 36 -16 2 -28 0 -28
-5z"/>
<path d="M3045 8128 c-2 -18 -6 -71 -7 -117 -3 -71 0 -85 15 -95 34 -21 47 16
47 136 l0 108 -25 0 c-19 0 -25 -6 -30 -32z"/>
<path d="M4148 7975 c6 -49 18 -52 14 -4 -2 21 -7 39 -11 39 -4 0 -5 -16 -3
-35z"/>
<path d="M4161 7860 c0 -8 4 -24 9 -35 l9 -20 0 20 c0 11 -4 27 -9 35 -9 13
-10 13 -9 0z"/>
</g>
</svg>
