<?xml version="1.0" standalone="no"?>
<!DOCTYPE svg PUBLIC "-//W3C//DTD SVG 20010904//EN"
 "http://www.w3.org/TR/2001/REC-SVG-20010904/DTD/svg10.dtd">
<svg version="1.0" xmlns="http://www.w3.org/2000/svg"
 width="500.000000pt" height="500.000000pt" viewBox="0 0 500.000000 500.000000"
 preserveAspectRatio="xMidYMid meet">

<g transform="translate(0.000000,500.000000) scale(0.100000,-0.100000)"
fill="#000000" stroke="none">
<path d="M2226 4969 c-31 -37 -37 -112 -9 -127 16 -10 14 -21 -9 -54 -10 -14
-10 -22 0 -38 16 -26 15 -74 -4 -259 -13 -116 -14 -158 -6 -172 10 -15 9 -17
-3 -13 -17 7 -19 -8 -6 -34 4 -9 5 -46 2 -81 -5 -42 -3 -67 4 -75 13 -12 8
-39 -5 -31 -4 3 -11 -15 -14 -40 -4 -24 -11 -47 -17 -50 -17 -11 -10 -45 10
-45 25 0 44 25 36 49 -3 12 2 34 12 53 l18 33 3 -40 c1 -22 4 -49 7 -61 6 -26
50 -48 73 -35 10 6 23 6 35 -1 14 -7 23 -5 36 6 16 15 19 15 31 1 17 -21 37
-19 50 6 11 19 13 19 29 5 23 -21 38 -20 50 1 9 17 11 16 30 -1 20 -18 22 -18
40 -2 16 15 22 15 41 4 18 -11 23 -11 35 6 14 18 16 18 33 3 21 -19 42 -22 42
-7 0 6 11 8 25 4 30 -7 32 2 5 31 -14 15 -23 44 -29 91 -7 61 -6 70 10 82 11
7 19 21 19 30 0 13 -2 14 -9 3 -10 -16 -51 -6 -51 12 0 7 7 23 16 36 15 20 15
24 1 38 -13 13 -19 13 -43 1 -25 -12 -29 -19 -27 -51 3 -42 3 -41 -32 -25 -18
8 -29 8 -36 1 -8 -8 -18 -8 -35 0 -17 7 -28 7 -35 0 -13 -13 -71 6 -65 22 2 5
8 9 14 8 7 -2 9 5 5 15 -11 30 -23 40 -46 36 -20 -4 -20 -4 2 6 16 7 27 7 36
0 17 -14 28 13 12 30 -10 10 -8 12 6 7 11 -4 16 -3 12 3 -3 6 -1 10 6 10 27 0
-10 22 -42 26 -49 6 -48 14 1 14 45 0 50 7 10 15 -45 9 -32 15 36 17 67 1 68
1 19 7 l-50 6 40 7 c22 4 79 8 128 8 l87 0 0 31 0 31 -62 -6 c-116 -11 -470
-9 -429 3 22 6 26 16 36 71 6 36 14 70 18 76 9 16 46 24 53 13 3 -5 43 -9 90
-9 67 0 86 3 91 15 3 9 4 18 1 20 -2 2 -53 5 -113 7 -110 3 -110 3 -110 28 l0
25 125 6 c159 7 190 3 190 -24 0 -11 -7 -29 -17 -39 -15 -17 -15 -18 9 -18 24
0 26 -4 38 -80 10 -66 16 -80 30 -80 44 0 46 5 36 100 -8 71 -7 95 4 116 13
23 12 30 -4 57 -15 26 -15 33 -4 42 15 11 20 57 5 48 -4 -2 -5 7 -1 21 4 17
-1 34 -16 56 -21 29 -24 30 -99 30 -48 0 -82 -5 -90 -12 -11 -10 -13 -10 -7 0
6 9 -15 12 -88 12 -80 0 -96 -3 -96 -16 0 -8 -5 -12 -11 -8 -6 3 -15 0 -20 -7
-8 -12 -10 -12 -18 0 -7 11 -9 11 -14 0 -4 -11 -6 -11 -6 -1 -1 7 9 17 22 22
19 8 17 9 -15 9 -29 1 -42 -5 -62 -30z m435 3 c5 7 6 -5 2 -27 -3 -22 -8 -42
-10 -45 -9 -10 -33 35 -33 63 0 26 1 27 16 12 14 -13 19 -14 25 -3z m-76 -9
c-4 -10 -10 -26 -12 -36 -7 -24 -25 -16 -34 15 -6 22 -4 25 14 20 14 -3 18 -1
13 6 -4 7 -1 12 9 12 12 0 15 -5 10 -17z m-218 -40 c-3 -10 -5 -4 -5 12 0 17
2 24 5 18 2 -7 2 -21 0 -30z m-34 2 c-6 -17 -25 -15 -31 3 -2 7 5 12 17 12 14
0 19 -5 14 -15z m297 -93 c48 -18 -1 -23 -57 -7 -55 16 -128 16 -218 -2 -16
-3 -27 -2 -23 2 22 23 241 28 298 7z m-317 -389 c-7 -2 -21 -2 -30 0 -10 3 -4
5 12 5 17 0 24 -2 18 -5z m27 -23 c11 -7 6 -10 -20 -10 -26 0 -31 3 -20 10 8
5 17 10 20 10 3 0 12 -5 20 -10z m-40 -30 c0 -5 -4 -10 -10 -10 -5 0 -10 5
-10 10 0 6 5 10 10 10 6 0 10 -4 10 -10z m70 0 c-20 -13 -60 -13 -60 0 0 6 17
10 38 10 27 0 33 -3 22 -10z m-55 -57 c-2 -10 -4 -20 -4 -23 -1 -3 -5 2 -11
10 -6 9 -5 17 3 22 16 10 16 10 12 -9z m-40 -15 c14 -6 26 -18 26 -27 1 -13 2
-13 6 2 2 9 12 17 22 17 13 0 18 -8 19 -32 0 -18 8 -38 16 -44 24 -17 19 -25
-9 -18 -18 4 -32 1 -45 -11 -20 -18 -20 -17 -20 32 0 50 -13 72 -50 86 -8 3
-10 6 -3 6 7 1 24 -4 38 -11z m142 -25 c-10 -3 -23 -16 -28 -30 -5 -14 -12
-23 -16 -20 -10 11 27 57 45 56 15 -1 15 -2 -1 -6z m-150 -87 c-4 -42 -12 -65
-27 -80 l-21 -21 7 66 c5 47 3 68 -5 74 -9 5 -8 12 5 26 14 15 20 17 32 7 11
-9 13 -27 9 -72z m461 54 c-7 -11 -16 -16 -21 -11 -12 12 0 31 19 31 12 0 12
-3 2 -20z m-274 -52 c0 -35 2 -95 5 -134 6 -77 -5 -107 -30 -78 -9 11 -12 50
-10 132 2 95 6 118 19 129 9 7 17 13 17 13 0 0 0 -28 -1 -62z m296 -68 c0 -25
5 -63 10 -84 12 -52 2 -70 -25 -48 -15 13 -21 32 -23 82 -2 36 -7 69 -12 74
-5 5 -4 16 2 26 9 14 15 16 30 7 13 -9 18 -24 18 -57z m-212 30 c6 0 15 8 21
17 9 16 11 16 31 -2 20 -18 22 -18 31 -2 13 22 35 22 44 0 3 -10 9 -47 12 -83
3 -36 9 -67 14 -70 4 -3 1 -14 -7 -24 -23 -32 -40 -4 -48 76 -7 78 -9 84 -26
73 -11 -7 -7 -95 6 -129 2 -6 -1 -18 -6 -26 -19 -30 -40 11 -47 89 -8 97 -28
89 -29 -12 0 -42 -3 -80 -7 -83 -3 -4 -13 1 -22 10 -12 12 -17 36 -17 94 -1
88 7 115 27 89 7 -10 17 -17 23 -17z m-176 10 c21 -10 23 -17 22 -93 0 -94 -9
-121 -30 -92 -13 18 -15 18 -37 -3 -23 -21 -24 -22 -40 -4 -9 9 -14 26 -12 37
2 11 4 44 4 73 1 46 4 54 25 62 13 5 27 14 31 19 8 13 9 13 37 1z"/>
<path d="M2635 4950 c3 -5 8 -10 11 -10 2 0 4 5 4 10 0 6 -5 10 -11 10 -5 0
-7 -4 -4 -10z"/>
<path d="M2310 4091 c0 -69 9 -93 27 -68 15 21 17 119 2 128 -26 16 -29 9 -29
-60z"/>
<path d="M2655 4439 c-22 -5 -13 -7 34 -8 35 0 61 2 57 7 -10 9 -52 10 -91 1z"/>
<path d="M2700 4405 c22 -12 21 -20 -2 -16 -14 2 -8 -20 7 -25 8 -4 13 -10 10
-14 -2 -4 5 -8 18 -8 19 0 22 6 22 37 -1 35 -2 36 -40 39 -40 2 -40 2 -15 -13z"/>
<path d="M2719 4329 c-10 -6 -7 -9 14 -9 29 0 35 5 14 13 -8 3 -20 1 -28 -4z"/>
<path d="M2215 4030 c-3 -11 -3 -24 0 -30 12 -19 -6 -48 -35 -58 -26 -10 -29
-15 -35 -79 -4 -37 -9 -75 -11 -85 -3 -9 0 -20 7 -23 7 -5 8 -10 1 -14 -6 -3
-18 -71 -26 -151 -30 -271 -44 -317 -130 -443 -135 -198 -173 -282 -185 -410
-4 -51 -5 -643 -1 -1317 8 -1301 5 -1245 57 -1362 l26 -58 633 0 633 0 30 63
c52 109 54 143 47 717 -3 289 -8 647 -11 795 -3 149 -7 446 -10 660 -6 398 -9
459 -25 555 -11 59 -66 182 -104 227 -40 50 -113 167 -139 223 -26 55 -53 199
-78 405 -6 55 -15 104 -19 108 -4 4 -18 5 -32 2 -20 -5 -25 -12 -22 -33 7 -69
24 -300 24 -338 0 -68 -23 -87 -106 -89 -38 -1 -91 -8 -119 -17 -51 -15 -117
-12 -215 11 -25 5 -62 10 -82 11 -25 0 -45 7 -59 21 -21 21 -22 28 -16 143 4
67 10 156 13 198 l7 77 -34 4 c-19 3 27 3 101 1 121 -5 343 6 488 22 l54 7 -7
46 c-9 66 -15 81 -31 81 -8 0 -14 7 -14 15 0 8 8 15 17 15 16 0 16 1 1 16 -13
13 -20 14 -38 4 -18 -9 -25 -9 -40 5 -16 15 -18 14 -23 -5 -3 -11 0 -20 6 -20
6 0 7 -3 4 -6 -4 -4 -13 -1 -21 6 -9 6 -21 10 -28 7 -8 -4 -7 -6 5 -6 11 -1
17 -9 17 -26 0 -20 -5 -25 -26 -25 -14 0 -23 -4 -19 -9 3 -5 0 -13 -6 -17 -7
-4 -9 -3 -6 3 4 6 -13 13 -45 17 -36 5 -53 3 -59 -5 -5 -9 -11 -8 -23 4 -18
17 -21 37 -7 37 5 0 17 3 27 7 13 5 15 3 9 -7 -5 -9 -4 -11 3 -6 17 10 16 12
-22 34 -30 18 -36 19 -47 6 -15 -18 -33 -18 -49 1 -11 13 -14 13 -27 -1 -9 -8
-27 -14 -41 -12 -21 2 -25 -1 -26 -23 -1 -14 -9 -33 -17 -42 -15 -14 -19 -14
-42 11 -18 19 -23 32 -17 41 5 9 3 23 -6 36 -8 12 -15 39 -16 59 -1 41 -4 44
-13 16z m253 -119 c6 -1 12 -7 12 -15 0 -17 -129 -29 -145 -13 -7 6 -2 8 14 4
17 -4 24 -1 28 11 4 16 11 17 91 13z m-138 -91 c-18 -6 -20 -8 -7 -9 38 -2 5
-18 -35 -17 -32 1 -44 5 -46 19 -3 15 4 17 55 16 44 -1 52 -3 33 -9z m223 -7
c-7 -2 -19 -2 -25 0 -7 3 -2 5 12 5 14 0 19 -2 13 -5z m140 0 c-24 -2 -62 -2
-85 0 -24 2 -5 4 42 4 47 0 66 -2 43 -4z m6 -18 c-8 -7 -78 -9 -85 -2 -4 4 14
7 41 7 27 0 46 -2 44 -5z m-110 -765 c28 -5 68 -17 88 -27 36 -17 41 -17 88
-1 28 9 58 17 68 18 23 0 108 -80 147 -138 42 -63 72 -182 46 -182 -6 0 -6 -4
2 -9 8 -4 13 -11 13 -15 -1 -3 11 -30 25 -59 76 -149 101 -284 113 -607 5
-129 9 -246 10 -260 5 -134 -2 -523 -10 -590 -25 -209 -76 -346 -173 -461 -33
-41 -34 -44 -37 -249 -1 -117 1 -142 20 -190 22 -57 27 -115 12 -139 -7 -10
-30 -13 -99 -9 -67 3 -89 1 -85 -8 3 -9 -73 -13 -309 -16 -272 -4 -315 -3
-325 11 -7 8 -10 17 -5 20 17 13 31 50 22 56 -14 9 -3 25 17 25 8 0 28 9 43
20 16 11 53 25 82 30 29 6 64 12 77 15 12 2 29 9 36 15 8 6 55 12 108 12 89 1
96 0 123 -25 15 -15 31 -22 34 -17 4 6 7 74 9 151 2 134 2 141 -16 134 -38
-17 -257 -18 -324 -1 -77 19 -210 83 -261 126 -39 32 -113 120 -89 105 11 -6
13 -4 8 9 -4 10 23 -9 59 -42 75 -68 184 -125 281 -148 103 -24 274 -15 376
21 282 98 407 328 406 745 0 118 -2 131 -12 100 -11 -31 -16 -35 -47 -34 -19
0 -42 4 -51 8 -15 6 -16 -3 -14 -91 3 -119 3 -116 15 -108 6 3 10 -2 10 -12 0
-15 2 -16 10 -3 13 21 18 10 13 -28 -5 -28 -9 -32 -32 -30 -14 2 -29 8 -33 13
-5 7 -8 6 -8 -1 0 -5 14 -21 31 -33 l32 -24 -24 -18 c-13 -10 -18 -19 -11 -19
6 0 12 -7 12 -15 0 -18 -5 -18 -30 -5 -15 8 -18 6 -15 -8 1 -9 8 -16 14 -14 6
1 11 -9 11 -23 0 -19 -4 -23 -17 -19 -16 5 -16 4 -2 -5 9 -6 15 -21 14 -33 -2
-13 -6 -42 -9 -66 -3 -23 -14 -56 -26 -72 -28 -39 -140 -140 -156 -140 -7 0
-16 -5 -20 -12 -5 -8 -2 -9 10 -5 10 4 15 3 11 -4 -4 -5 -16 -7 -27 -3 -12 3
-24 1 -28 -6 -5 -7 -23 -14 -42 -15 -18 -1 -69 -5 -113 -9 -44 -3 -74 -3 -67
0 11 5 10 10 -1 27 -16 25 -28 79 -16 71 5 -3 8 11 7 30 -1 19 -5 33 -10 30
-5 -3 -6 -15 -2 -27 4 -16 3 -19 -4 -12 -6 6 -12 29 -14 53 -2 23 -6 42 -10
42 -5 0 -6 10 -4 23 3 24 16 29 108 46 70 12 152 47 143 61 -3 5 0 8 7 5 38
-15 164 138 197 238 27 82 42 197 25 197 -7 0 -16 -29 -23 -74 -14 -95 -44
-175 -87 -231 -19 -25 -34 -50 -34 -57 0 -6 -3 -9 -6 -5 -3 3 -20 -7 -37 -23
-55 -51 -137 -75 -257 -75 -93 0 -112 3 -162 27 -59 28 -133 81 -141 102 -8
21 29 11 71 -18 104 -72 250 -91 364 -47 73 28 115 60 96 73 -9 6 -6 7 9 3 12
-3 25 -1 29 6 5 8 3 9 -6 4 -7 -4 5 10 27 32 58 58 103 188 103 295 l0 40 -29
-31 c-16 -17 -33 -31 -38 -31 -6 0 -18 -16 -29 -36 -14 -28 -16 -38 -6 -41 25
-9 2 -63 -27 -63 -11 0 -15 -13 -12 -39 2 -7 -2 -10 -7 -7 -5 3 -7 -6 -4 -19
4 -22 1 -25 -27 -25 -17 0 -34 0 -37 1 -4 0 -11 -5 -15 -13 -7 -10 -9 -10 -9
0 0 9 -27 12 -106 11 -79 0 -109 3 -115 13 -7 10 -9 10 -9 1 0 -7 -4 -13 -10
-13 -5 0 -10 7 -10 15 0 10 11 15 33 16 17 1 57 3 87 5 30 1 69 3 86 3 38 1
52 26 23 42 -14 7 -29 7 -50 0 -16 -6 -27 -6 -24 -1 8 13 -18 19 -38 8 -24
-12 -55 -1 -62 23 -8 24 -22 24 -30 0 -5 -15 -15 -20 -45 -19 l-38 0 -4 54
c-3 48 -1 53 17 52 11 0 28 3 39 7 15 7 17 5 12 -11 -5 -16 0 -19 34 -21 45
-1 49 8 20 37 -16 16 -28 19 -59 14 -33 -5 -41 -3 -59 21 l-21 26 -20 -20
c-25 -25 -68 -27 -98 -6 -18 13 -22 13 -33 0 -7 -8 -26 -15 -42 -15 l-29 0 7
-57 c4 -32 10 -68 15 -80 8 -21 7 -22 -11 -11 -20 13 -40 77 -40 131 0 19 -7
40 -16 48 -31 26 -54 87 -54 146 0 50 -2 55 -13 38 -10 -12 -13 -40 -10 -90 4
-67 3 -74 -18 -89 -12 -8 -26 -13 -31 -9 -6 3 -28 -3 -50 -13 l-41 -18 5 -131
c5 -138 -7 -131 -17 10 -4 44 -8 103 -10 130 -3 36 -1 45 6 33 12 -22 38 -23
66 -3 12 8 28 12 36 9 8 -3 22 2 31 11 13 13 15 30 10 88 -5 60 -4 75 10 86 9
7 16 19 16 26 0 7 7 18 15 25 13 11 15 2 15 -75 0 -108 16 -148 73 -176 39
-21 40 -21 66 -2 25 19 26 19 58 0 31 -18 35 -18 57 -3 14 8 27 25 31 36 6 19
9 18 39 -15 19 -19 40 -35 49 -35 9 0 29 16 46 37 l30 36 26 -31 c15 -18 35
-32 44 -32 20 0 44 24 55 54 6 18 9 17 39 -12 18 -18 39 -32 47 -32 18 0 50
30 50 47 0 19 14 16 36 -8 43 -47 75 -45 95 8 11 31 23 29 49 -7 25 -35 55
-39 70 -10 11 20 11 20 39 -1 43 -32 62 -22 89 45 20 51 23 71 18 130 -3 39
-5 89 -4 111 7 139 -5 205 -42 225 -18 9 -40 -4 -40 -25 0 -6 -7 -21 -16 -34
l-16 -23 -28 27 c-31 30 -29 50 10 105 21 29 26 75 11 99 -12 19 -74 6 -108
-23 -29 -25 -34 -62 -19 -136 4 -19 2 -42 -3 -50 -8 -12 -14 -9 -37 13 -22 22
-35 27 -63 25 -30 -3 -36 -7 -35 -26 1 -21 0 -22 -25 -5 -72 47 -101 50 -122
12 -10 -19 -11 -19 -37 1 -16 14 -37 20 -57 18 -27 -3 -30 0 -33 28 -2 20 4
36 18 49 39 36 16 95 -39 95 -15 0 -44 -9 -65 -20 -22 -10 -43 -17 -48 -14 -5
3 -20 -2 -33 -10 -23 -15 -25 -23 -25 -91 0 -41 -3 -75 -7 -75 -5 0 -21 9 -38
20 -40 27 -73 26 -86 -3 -6 -13 -19 -28 -30 -35 -18 -12 -19 -9 -19 73 0 98
-19 149 -70 185 -36 26 -56 21 -71 -17 l-10 -27 -23 29 c-30 37 -48 29 -80
-37 l-25 -53 -1 65 c-1 202 60 422 152 552 11 16 17 32 14 36 -13 21 17 148
42 182 65 86 109 113 190 115 35 2 67 7 71 12 6 9 40 21 85 30 11 2 22 6 25 8
8 8 96 5 150 -5z m-517 -961 c20 -27 36 -190 24 -253 -8 -41 -94 -145 -114
-138 -9 3 -12 -21 -12 -85 0 -55 -4 -83 -9 -74 -7 11 -13 7 -25 -18 -23 -44
-35 -38 -24 12 5 25 6 141 1 281 -7 212 -6 240 9 269 l17 32 15 -37 c9 -21 20
-38 25 -38 13 0 51 50 51 67 0 20 20 12 42 -18z m933 -36 c-14 -21 -25 -48
-25 -60 0 -35 -15 -27 -28 13 -10 33 -8 38 13 60 13 13 33 24 45 24 20 0 20
-1 -5 -37z m-529 6 c-12 -18 -14 -58 -9 -258 3 -135 10 -241 16 -249 7 -9 3
-20 -14 -40 -13 -15 -25 -29 -26 -31 -1 -2 -15 12 -32 32 l-31 34 -5 242 c-3
132 -2 241 3 241 4 0 13 -5 19 -11 7 -7 15 -2 27 16 14 21 41 40 64 44 2 1 -4
-9 -12 -20z m-597 -294 c0 -126 -3 -237 -9 -245 -5 -9 -9 84 -9 250 0 160 4
257 9 245 5 -11 9 -123 9 -250z m971 145 c27 -13 39 -73 39 -202 1 -107 3
-128 16 -128 20 0 19 -7 -5 -37 -11 -14 -20 -32 -20 -39 0 -16 -16 -19 -25 -4
-4 6 -11 7 -17 4 -6 -4 -8 -2 -4 4 6 10 -10 26 -26 27 -3 0 -10 4 -15 9 -5 5
-3 6 5 2 9 -6 12 13 12 81 0 138 -9 193 -31 193 -22 0 -22 4 -19 -130 2 -105
3 -114 21 -116 5 -1 11 -2 14 -3 2 0 -7 -12 -21 -26 -15 -15 -23 -32 -20 -41
3 -9 1 -12 -4 -9 -6 3 -10 1 -10 -6 0 -7 -16 2 -35 21 l-35 34 0 125 c0 133
-6 155 -36 149 -17 -3 -19 -15 -22 -119 -2 -93 0 -118 12 -128 13 -11 13 -17
-7 -44 -12 -18 -23 -34 -24 -36 -1 -2 -15 10 -30 26 -15 16 -35 32 -42 35 -13
4 -13 9 -2 35 15 36 5 233 -12 244 -10 7 41 79 56 79 4 0 17 -16 28 -35 12
-19 25 -35 29 -35 9 0 36 32 55 65 9 15 14 16 33 6 13 -7 27 -23 32 -37 12
-31 33 -31 55 3 14 21 15 30 6 45 -10 17 -10 17 11 7 13 -7 30 -15 38 -19z
m296 -15 c20 -48 18 -66 -12 -138 -28 -66 -35 -154 -12 -168 20 -13 28 0 28
44 0 27 3 37 9 29 17 -27 -27 -162 -53 -162 -18 0 -41 29 -55 69 -6 19 -11 89
-11 157 0 123 0 124 25 130 16 4 29 18 37 40 15 43 25 43 44 -1z m-144 -1 c20
-20 25 -31 18 -43 -4 -9 -5 -79 -1 -156 7 -123 4 -161 -15 -193 -1 -1 -17 13
-37 33 -19 19 -31 38 -26 41 5 3 9 57 9 121 0 93 -3 120 -16 134 -15 17 -15
21 6 54 12 19 24 35 28 35 3 0 18 -12 34 -26z m-722 -21 l48 -27 -5 -80 c-3
-45 0 -114 5 -155 10 -71 10 -76 -12 -102 -22 -26 -25 -27 -39 -11 -8 9 -19
25 -24 36 -9 17 -13 16 -44 -17 -28 -30 -36 -33 -55 -25 -37 17 -45 54 -42
198 3 131 4 135 25 138 13 2 37 18 55 36 18 18 35 34 37 35 1 0 25 -11 51 -26z
m580 -399 c0 -2 -7 -4 -15 -4 -8 0 -15 4 -15 10 0 5 7 7 15 4 8 -4 15 -8 15
-10z m-40 -264 c0 -5 -4 -10 -10 -10 -5 0 -10 5 -10 10 0 6 5 10 10 10 6 0 10
-4 10 -10z m-441 -14 c10 -6 12 -5 7 2 -4 7 -2 12 3 12 6 0 11 -7 11 -16 0
-18 -51 -16 -57 3 -5 13 14 12 36 -1z m61 5 c0 -6 -4 -13 -10 -16 -5 -3 -10 1
-10 9 0 9 5 16 10 16 6 0 10 -4 10 -9z m393 -19 c-10 -10 -23 -27 -29 -37 -11
-20 -86 -33 -157 -27 -29 2 -37 7 -35 19 4 22 38 26 39 5 0 -14 1 -15 7 -2 4
8 18 16 32 16 14 1 30 3 35 4 25 6 45 -2 46 -17 1 -17 2 -17 6 0 2 9 11 17 20
17 9 0 13 6 10 14 -6 14 6 24 31 25 7 1 6 -6 -5 -17z m-749 -38 c11 -43 -26
-74 -39 -33 -4 12 -12 18 -21 15 -22 -8 -16 11 8 28 32 22 45 20 52 -10z m512
5 c12 -20 -13 -30 -81 -30 -72 0 -86 4 -67 23 9 9 12 9 12 -2 0 -11 2 -12 8
-3 4 6 30 13 57 16 28 2 53 4 57 5 4 1 10 -3 14 -9z m-176 -14 c0 -8 -22 -11
-52 -6 -22 3 -4 16 22 16 17 0 30 -4 30 -10z m-290 -98 c0 -10 -8 -21 -17 -24
-10 -4 -24 -14 -31 -22 -11 -14 -12 -11 -6 19 6 31 5 33 -10 21 -13 -11 -16
-11 -16 0 0 7 12 23 27 35 25 20 29 20 40 5 7 -9 13 -24 13 -34z m390 20 c0 6
8 9 18 6 26 -6 24 -33 -2 -28 -12 2 -26 4 -33 4 -7 1 -10 8 -6 17 5 13 7 13
14 2 6 -8 9 -9 9 -1z m130 3 c0 -5 0 -13 0 -17 -1 -8 -51 -5 -59 2 -1 2 0 8 4
14 8 14 55 14 55 1z m-460 -104 c0 -5 -9 -1 -20 9 -16 14 -20 15 -20 4 0 -8 5
-20 12 -27 9 -9 9 -12 1 -12 -7 0 -15 5 -18 10 -12 19 -26 11 -15 -9 16 -30
12 -36 -10 -16 -26 24 -25 33 7 67 l27 29 18 -23 c10 -13 18 -27 18 -32z m30
-41 c0 -22 3 -25 25 -19 14 3 25 4 25 1 0 -17 -43 -76 -52 -71 -6 4 -6 10 1
17 16 16 13 27 -4 21 -10 -4 -15 0 -15 12 -1 18 -1 18 -15 0 -25 -33 -29 -9
-5 28 25 42 40 46 40 11z m90 -45 c0 -16 -33 -80 -42 -80 -11 0 -10 4 8 50 15
37 34 54 34 30z m39 -47 c-5 -15 -7 -34 -4 -42 6 -14 8 -13 21 3 8 11 14 28
14 38 0 10 7 18 16 18 11 0 14 -6 9 -22 -11 -35 -34 -68 -48 -68 -18 0 -37 21
-37 41 0 29 19 71 30 64 6 -4 6 -15 -1 -32z m107 -20 l7 -26 18 21 c19 24 39
29 39 10 0 -42 -14 -88 -26 -88 -8 0 -14 7 -14 16 0 8 -4 13 -9 9 -6 -3 -14 3
-20 12 -9 16 -10 16 -11 -4 0 -13 -4 -23 -10 -23 -11 0 -13 42 -4 78 8 30 22
28 30 -5z"/>
<path d="M2437 2839 c-85 -11 -196 -54 -270 -103 -159 -106 -262 -308 -282
-556 -6 -70 -5 -73 9 -49 21 36 41 42 68 20 22 -18 23 -18 41 5 24 31 39 30
80 -6 l34 -29 13 42 c24 81 64 147 121 202 169 162 428 165 585 7 47 -47 101
-146 110 -203 l6 -38 48 6 c42 5 49 3 64 -18 23 -33 20 -67 -9 -114 -28 -46
-31 -68 -11 -85 12 -9 19 -4 36 29 22 45 34 49 62 24 17 -15 18 -13 18 59 0
109 -19 282 -41 366 -56 220 -214 382 -419 430 -70 16 -188 21 -263 11z m36
-176 c7 -37 2 -40 -25 -16 -17 15 -18 15 -18 -8 0 -19 -2 -21 -10 -9 -5 8 -10
28 -10 44 0 28 0 29 20 11 19 -18 20 -17 20 5 0 32 16 14 23 -27z m101 15 c15
-38 11 -54 -10 -37 -10 8 -18 9 -27 0 -21 -17 -25 -5 -13 34 14 44 32 45 50 3z
m105 17 c2 -2 -4 -11 -13 -20 -9 -9 -16 -25 -16 -36 0 -10 -5 -19 -11 -19 -7
0 -10 14 -7 35 2 19 0 35 -4 35 -4 0 -8 5 -8 11 0 10 48 5 59 -6z m58 -40 c-3
-19 -2 -35 4 -35 5 0 9 6 9 13 0 20 17 40 28 33 14 -9 -2 -56 -25 -73 -9 -7
-12 -13 -7 -13 13 0 54 46 48 53 -3 3 -1 8 5 12 6 3 11 -2 11 -12 0 -15 2 -15
10 -3 14 22 47 -13 52 -57 4 -31 3 -33 -9 -17 -11 16 -13 16 -13 2 0 -26 17
-30 44 -13 14 9 30 14 36 10 14 -8 3 -53 -22 -90 -12 -16 -15 -24 -7 -17 18
17 34 15 19 -3 -7 -8 -8 -15 -3 -15 5 0 9 -14 8 -30 -1 -17 3 -34 8 -37 6 -4
7 -1 2 8 -5 8 -4 11 1 6 4 -4 7 -24 5 -44 -2 -21 1 -33 7 -29 6 4 8 -2 5 -14
-5 -19 -7 -19 -20 7 -20 40 -54 73 -66 66 -6 -3 -7 -1 -3 5 9 15 -40 66 -55
56 -8 -4 -9 -3 -5 4 8 13 -52 55 -100 72 -30 11 -31 12 -20 50 7 27 13 37 20
30 15 -15 25 -12 21 8 -1 9 -7 16 -13 15 -6 -1 -7 11 -1 35 5 20 9 40 9 45 0
4 5 7 11 7 8 0 10 -12 6 -35z m-401 -25 c16 0 19 -26 4 -35 -6 -3 -13 2 -17
12 -6 16 -8 15 -14 -7 -7 -24 -7 -25 -8 -2 -1 13 -5 20 -11 17 -11 -7 -26 22
-16 32 3 3 12 0 21 -7 12 -10 15 -9 16 6 1 17 2 17 6 2 2 -10 11 -18 19 -18z
m-96 -51 c15 -26 6 -49 -18 -49 -21 0 -48 42 -38 59 12 18 45 12 56 -10z m-75
-69 c15 -16 15 -22 5 -35 -17 -21 -37 -19 -50 6 -24 43 11 66 45 29z m810 -50
c-10 -12 -14 -26 -10 -39 4 -15 2 -20 -12 -18 -12 0 -19 9 -18 23 0 26 33 66
47 58 5 -3 2 -14 -7 -24z m-855 -49 c0 -11 -5 -10 -20 4 -15 13 -20 14 -20 5
0 -11 -3 -11 -11 -3 -7 7 -9 19 -5 28 5 15 8 14 31 -2 13 -10 25 -24 25 -32z"/>
<path d="M2874 2499 c-4 -7 -3 -9 4 -5 6 3 13 -2 15 -11 4 -16 5 -16 6 -1 1
21 -15 32 -25 17z"/>
<path d="M2200 2576 c0 -7 7 -19 15 -26 16 -13 20 -3 9 24 -8 20 -24 21 -24 2z"/>
<path d="M2126 2512 c-7 -12 22 -38 31 -28 4 3 0 14 -9 22 -9 10 -18 12 -22 6z"/>
<path d="M2423 2426 c-143 -46 -262 -198 -266 -339 -1 -23 0 -73 1 -111 l2
-69 21 27 c24 30 58 34 94 10 l25 -16 0 52 c0 75 21 110 69 110 14 0 32 7 42
16 10 9 39 19 64 22 26 2 49 11 52 18 3 8 11 14 19 14 13 0 18 13 17 46 0 6 6
11 13 11 8 0 14 -4 14 -9 0 -17 18 -7 23 13 4 15 11 20 21 16 9 -4 16 -2 16 3
0 6 -5 10 -11 10 -5 0 -7 5 -3 11 8 14 -14 29 -43 29 -13 0 -23 5 -23 12 0 6
3 8 6 5 4 -3 15 -2 24 3 13 7 20 6 24 -5 7 -18 57 -20 74 -3 7 7 12 25 12 40
0 18 5 28 15 28 8 0 14 -6 12 -12 -1 -8 7 -12 22 -10 17 1 22 -2 17 -13 -3 -8
-1 -15 5 -15 17 0 6 32 -16 44 -11 6 -23 15 -26 20 -4 5 -12 5 -19 1 -8 -5
-11 -4 -7 2 23 37 -202 68 -290 39z"/>
<path d="M2804 2301 c1 -16 4 -33 8 -37 4 -3 5 6 2 21 -4 25 -3 27 10 15 9 -7
13 -16 11 -21 -3 -4 3 -17 15 -29 23 -23 26 -40 6 -40 -8 0 -18 -5 -22 -12 -4
-6 -3 -8 4 -4 6 3 13 2 17 -4 3 -5 1 -10 -4 -10 -6 0 -11 -4 -11 -10 0 -5 8
-10 17 -10 13 0 14 -3 5 -12 -15 -15 -16 -32 -2 -23 6 3 10 -1 10 -11 0 -12 3
-14 13 -6 10 8 13 6 14 -9 1 -11 -3 -17 -8 -13 -5 3 -16 0 -24 -6 -17 -14 -20
-40 -5 -40 6 0 10 6 10 14 0 8 4 18 10 21 6 4 7 -1 4 -12 -3 -10 4 -4 15 13
20 30 20 33 5 85 -9 30 -25 66 -35 81 -11 14 -19 30 -19 35 0 5 -11 19 -24 32
l-23 22 1 -30z"/>
<path d="M2735 2309 c-17 -6 -15 -8 10 -9 25 0 27 -2 12 -11 -9 -5 -21 -8 -25
-5 -4 2 -8 -4 -8 -14 0 -15 4 -16 18 -9 10 6 22 8 26 5 4 -2 9 6 10 19 2 26
-14 36 -43 24z"/>
<path d="M2675 2260 c3 -5 11 -10 16 -10 6 0 7 5 4 10 -3 6 -11 10 -16 10 -6
0 -7 -4 -4 -10z"/>
<path d="M2620 2220 c0 -5 5 -10 11 -10 5 0 7 5 4 10 -3 6 -8 10 -11 10 -2 0
-4 -4 -4 -10z"/>
<path d="M2646 2187 c3 -10 9 -15 12 -12 3 3 0 11 -7 18 -10 9 -11 8 -5 -6z"/>
<path d="M2585 2170 c-3 -5 -1 -10 4 -10 6 0 11 5 11 10 0 6 -2 10 -4 10 -3 0
-8 -4 -11 -10z"/>
<path d="M2586 2125 c-3 -10 1 -15 14 -15 25 0 34 16 14 24 -21 8 -21 8 -28
-9z"/>
<path d="M2545 2120 c3 -5 8 -10 11 -10 2 0 4 5 4 10 0 6 -5 10 -11 10 -5 0
-7 -4 -4 -10z"/>
<path d="M2545 1980 c-3 -5 -1 -10 4 -10 6 0 11 5 11 10 0 6 -2 10 -4 10 -3 0
-8 -4 -11 -10z"/>
<path d="M2890 1951 c0 -6 4 -13 10 -16 6 -3 7 1 4 9 -7 18 -14 21 -14 7z"/>
<path d="M2500 1415 c-7 -9 -9 -19 -5 -23 4 -4 10 -1 12 6 3 6 9 12 14 12 4 0
6 -6 3 -14 -6 -16 24 -56 43 -56 7 0 13 -5 13 -11 0 -5 5 -7 10 -4 6 3 10 11
10 16 0 6 -5 7 -11 3 -8 -4 -9 1 -4 17 7 22 6 23 -9 10 -15 -13 -19 -13 -27 0
-5 8 -9 19 -9 25 0 6 -6 17 -14 23 -10 9 -16 8 -26 -4z"/>
<path d="M2720 1240 c-12 -8 -12 -10 3 -16 10 -3 21 -4 24 0 4 3 1 6 -6 6 -7
0 -9 5 -6 10 8 12 4 12 -15 0z"/>
<path d="M1977 1993 c-4 -3 -7 -59 -7 -123 0 -120 6 -140 42 -140 16 0 18 11
18 109 0 60 -4 121 -10 135 -9 25 -29 34 -43 19z"/>
<path d="M3101 1765 c0 -57 0 -59 14 -35 18 32 19 52 0 76 -13 17 -14 14 -14
-41z"/>
<path d="M2180 1697 c0 -110 2 -128 20 -148 20 -24 20 -24 35 -5 11 14 15 44
15 102 0 45 3 95 6 111 5 27 3 32 -28 44 -18 7 -36 14 -40 17 -5 2 -8 -52 -8
-121z"/>
<path d="M2054 1119 c-3 -6 -1 -16 5 -22 8 -8 11 -5 11 11 0 24 -5 28 -16 11z"/>
<path d="M2090 1031 c0 -6 5 -13 10 -16 6 -3 10 1 10 9 0 9 -4 16 -10 16 -5 0
-10 -4 -10 -9z"/>
</g>
</svg>
