<?xml version="1.0" standalone="no"?>
<!DOCTYPE svg PUBLIC "-//W3C//DTD SVG 20010904//EN"
 "http://www.w3.org/TR/2001/REC-SVG-20010904/DTD/svg10.dtd">
<svg version="1.0" xmlns="http://www.w3.org/2000/svg"
 width="919.000000pt" height="919.000000pt" viewBox="0 0 919.000000 919.000000"
 preserveAspectRatio="xMidYMid meet">
<metadata>
Created by potrace 1.11, written by Peter Selinger 2001-2013
</metadata>
<g transform="translate(0.000000,919.000000) scale(0.100000,-0.100000)"
fill="#000000" stroke="none">
<path d="M2480 4925 l0 -845 95 0 95 0 0 845 0 845 -95 0 -95 0 0 -845z"/>
<path d="M1309 5341 c-14 -5 -35 -14 -47 -20 -18 -10 -22 -9 -22 4 0 12 -16
15 -95 15 l-95 0 0 -960 0 -960 95 0 95 0 0 340 c0 187 3 340 8 340 4 -1 18
-7 32 -15 15 -9 53 -14 96 -15 96 0 149 27 184 95 l25 50 -3 495 c-3 448 -5
499 -21 535 -10 22 -27 48 -39 58 -44 40 -146 58 -213 38z m67 -76 c12 -19 14
-103 12 -569 -3 -529 -4 -548 -22 -562 -28 -20 -69 -17 -100 7 l-26 20 0 549
c0 596 -3 563 57 579 37 10 61 3 79 -24z"/>
<path d="M1932 5331 c-111 -38 -152 -108 -160 -273 l-5 -108 102 0 101 0 0
155 c0 142 2 157 20 175 11 11 31 20 45 20 14 0 34 -9 45 -20 19 -19 20 -33
20 -249 l0 -229 -87 -4 c-99 -5 -153 -26 -196 -78 -43 -51 -49 -88 -45 -315 4
-245 11 -272 88 -312 53 -28 154 -32 202 -7 22 11 33 13 38 5 4 -8 39 -11 101
-9 l94 3 0 535 c0 492 -1 539 -18 582 -47 120 -202 178 -345 129z m168 -881
l0 -300 -34 -17 c-43 -20 -83 -11 -96 23 -6 14 -10 141 -10 283 0 246 1 260
21 285 17 22 28 26 70 26 l49 0 0 -300z"/>
<path d="M3105 5338 c-16 -6 -35 -15 -41 -20 -8 -5 -14 -3 -18 7 -5 13 -22 15
-98 13 l-93 -3 -3 -627 -2 -628 100 0 100 0 0 590 0 590 24 15 c37 24 97 16
113 -15 10 -19 13 -159 13 -602 l0 -578 95 0 96 0 -3 568 c-2 312 -6 574 -11
582 -5 11 3 22 27 38 45 31 94 32 118 2 17 -21 18 -54 18 -606 l0 -585 98 3
97 3 0 550 c0 508 -1 554 -18 597 -10 26 -32 59 -48 72 -71 60 -195 61 -283 1
l-36 -24 -25 23 c-44 41 -153 58 -220 34z"/>
<path d="M4095 5332 c-71 -24 -120 -65 -150 -125 l-25 -51 0 -448 c0 -362 3
-455 14 -482 22 -53 82 -112 138 -136 44 -19 65 -22 138 -18 102 5 162 33 210
100 41 56 51 102 48 206 l-3 87 -95 0 -95 0 -5 -157 c-5 -173 -11 -189 -66
-190 -46 -1 -71 11 -83 40 -8 18 -10 109 -9 277 l3 250 178 3 178 2 -3 238
c-3 222 -4 240 -25 278 -63 118 -213 173 -348 126z m155 -52 c19 -19 20 -33
20 -285 l0 -266 -77 3 -78 3 0 263 0 264 24 19 c31 25 85 25 111 -1z"/>
<path d="M4903 5339 c-18 -5 -35 -14 -38 -19 -9 -15 -25 -12 -25 5 0 12 -17
15 -95 15 l-95 0 0 -630 0 -630 95 0 95 0 0 589 0 590 22 15 c12 9 37 16 55
16 47 0 53 -23 53 -196 l0 -144 95 0 95 0 0 124 c0 67 -5 138 -11 157 -32 94
-136 140 -246 108z"/>
<path d="M5512 5331 c-65 -22 -126 -79 -148 -137 -23 -61 -17 -304 10 -354 10
-19 78 -96 150 -170 102 -104 135 -144 144 -176 7 -24 12 -104 12 -191 0 -137
-2 -151 -20 -168 -24 -22 -77 -22 -99 0 -13 13 -17 45 -19 175 l-3 160 -95 0
-94 0 0 -107 c0 -123 14 -166 71 -221 50 -50 86 -65 166 -70 92 -6 150 10 203
55 73 63 85 98 85 253 0 203 -2 208 -161 370 -72 74 -140 151 -150 170 -15 28
-19 63 -22 180 -4 136 -2 147 18 173 29 36 71 37 99 1 19 -24 21 -40 21 -175
l0 -149 95 0 95 0 0 98 c0 127 -11 163 -68 222 -75 76 -181 99 -290 61z"/>
<path d="M6210 4385 l0 -965 968 2 967 3 0 960 0 960 -967 3 -968 2 0 -965z
m1632 829 c-12 -8 -30 -30 -39 -47 l-18 -32 -5 40 c-4 34 -9 40 -31 43 -22 3
-27 -2 -33 -29 -3 -17 -6 -69 -6 -116 0 -75 2 -83 17 -75 23 13 173 194 173
210 0 14 28 16 49 3 11 -7 -10 -36 -97 -130 -105 -113 -130 -151 -99 -151 6 0
65 47 130 105 65 58 123 103 128 100 5 -4 9 -34 9 -69 l0 -63 -28 5 c-36 5
-120 -27 -166 -64 -33 -26 -47 -54 -29 -54 16 0 199 63 211 73 9 7 12 2 12
-19 0 -27 -3 -29 -39 -29 -45 -1 -123 -33 -118 -49 2 -7 34 -11 80 -11 l77 0
0 -102 c0 -87 -2 -102 -15 -97 -21 9 -45 -14 -45 -43 0 -28 24 -40 45 -23 13
11 15 -1 15 -94 0 -58 -3 -106 -8 -106 -4 0 -22 -24 -40 -54 -31 -52 -83 -106
-103 -106 -5 0 -9 10 -9 23 0 12 -4 28 -9 36 -8 12 -13 12 -35 -2 -26 -17 -33
-35 -38 -92 -3 -26 -10 -33 -73 -59 -53 -21 -92 -30 -157 -34 -49 -3 -88 -2
-88 2 0 4 26 39 57 77 48 60 60 70 80 65 75 -19 73 -19 73 2 0 32 -81 115
-112 115 -26 0 -128 -74 -128 -93 0 -5 12 -18 26 -29 25 -19 25 -21 8 -46 -28
-43 -90 -69 -164 -70 -100 0 -150 43 -136 117 10 57 38 78 101 78 49 0 55 2
55 20 0 20 -26 80 -34 80 -3 0 -41 -25 -85 -56 -45 -30 -81 -53 -81 -51 0 12
34 85 51 109 11 14 19 30 19 35 0 8 -81 63 -94 63 -3 0 -6 -29 -6 -64 0 -54
-4 -69 -24 -93 l-25 -28 -14 35 c-45 108 -55 459 -18 665 12 66 24 127 26 136
3 8 -1 24 -9 35 -27 35 -42 -1 -62 -146 -21 -153 -25 -465 -7 -565 6 -33 9
-62 7 -64 -6 -7 -35 69 -55 148 -11 42 -25 127 -31 188 -11 110 -9 148 19 406
5 45 5 47 -21 47 -19 0 -27 -6 -33 -27 -10 -34 -10 -249 -1 -358 l6 -80 -14
75 c-8 41 -18 145 -22 230 l-7 155 -25 0 -25 0 3 -118 c1 -65 10 -155 18 -200
9 -45 18 -95 21 -112 l6 -30 -22 19 c-12 11 -32 36 -44 55 -21 34 -22 48 -22
211 0 174 0 175 -22 178 -23 3 -23 3 -24 -145 -1 -165 -11 -158 -28 20 -6 60
-13 113 -16 118 -9 14 -55 11 -61 -4 -2 -7 5 -57 16 -111 11 -55 19 -101 17
-103 -9 -9 -43 43 -53 80 -11 41 -14 44 -44 33 -10 -4 -26 11 -50 47 -46 68
-45 65 -18 70 13 2 340 5 728 6 641 1 702 0 682 -15z m-1443 -114 c4 0 25 -21
45 -47 33 -43 36 -51 36 -115 l0 -69 -57 61 c-59 64 -73 65 -73 7 0 -44 29
-83 83 -113 34 -18 53 -37 64 -61 26 -63 14 -68 -55 -24 -34 23 -67 41 -73 41
-6 0 -9 -15 -7 -32 3 -29 11 -37 73 -71 67 -36 125 -82 125 -98 0 -4 -43 10
-96 33 -77 32 -98 37 -105 26 -25 -38 -14 -45 171 -118 84 -34 157 -63 162
-66 24 -15 -15 -20 -100 -14 -74 6 -100 12 -124 30 -29 21 -30 21 -50 3 -19
-17 -20 -17 -33 0 -6 9 -17 17 -24 17 -15 0 -14 -45 2 -58 7 -6 109 -18 227
-27 118 -9 235 -21 260 -26 45 -10 199 -88 234 -118 21 -19 99 -177 115 -236
13 -49 14 -244 1 -265 -7 -10 -10 16 -10 82 0 123 -13 186 -57 271 -45 85
-143 178 -230 219 -74 35 -145 45 -366 51 -182 4 -203 -1 -173 -48 18 -27 18
-28 102 -21 72 6 84 5 84 -8 0 -25 -44 -47 -119 -60 -80 -13 -85 -16 -76 -46
7 -23 10 -23 85 -4 15 4 5 -7 -28 -27 -54 -35 -72 -63 -53 -82 20 -20 119 41
216 134 112 107 128 116 162 94 16 -11 34 -14 50 -10 18 4 29 1 38 -11 7 -10
32 -20 56 -23 31 -4 45 -11 47 -23 3 -14 -3 -18 -25 -19 -15 0 -36 -4 -46 -8
-17 -6 -14 -13 26 -56 l45 -50 15 38 c22 50 46 48 96 -10 59 -66 102 -158 108
-232 l6 -61 -43 -39 -43 -40 35 -21 c20 -11 39 -27 41 -34 3 -8 -1 -44 -10
-81 -11 -50 -12 -70 -4 -78 17 -17 44 4 53 42 10 35 28 33 28 -4 0 -13 7 -31
16 -39 14 -15 7 -16 -78 -15 -51 1 -85 3 -75 6 9 2 17 6 17 9 0 2 -27 59 -60
125 -51 101 -63 119 -75 109 -8 -7 -15 -23 -15 -36 0 -30 56 -173 77 -196 15
-17 13 -18 -32 -18 -37 0 -45 3 -37 13 11 13 -23 187 -38 187 -23 0 -31 -34
-28 -114 3 -77 1 -86 -15 -86 -14 0 -15 3 -6 18 13 20 0 113 -17 119 -11 4
-54 -95 -54 -123 0 -12 -31 -14 -177 -14 -159 0 -181 2 -210 20 -45 27 -63 60
-70 124 -6 55 -5 56 20 56 14 0 37 4 51 10 28 10 32 36 20 113 -9 53 -33 45
-66 -23 l-27 -55 2 675 c1 371 6 681 11 688 6 10 13 6 27 -17 10 -17 23 -31
28 -31z m188 -182 c33 -35 46 -60 68 -132 14 -48 24 -90 21 -93 -6 -7 -99 70
-126 104 -16 20 -20 41 -20 94 0 38 4 69 8 69 4 0 26 -19 49 -42z m225 -215
c30 -31 91 -186 86 -217 -3 -19 -8 -16 -45 21 -32 33 -48 62 -72 135 -17 51
-31 97 -31 101 0 12 32 -9 62 -40z m-89 17 c3 -11 1 -20 -4 -20 -5 0 -9 9 -9
20 0 11 2 20 4 20 2 0 6 -9 9 -20z m-96 -39 c26 -21 62 -53 78 -71 30 -32 30
-32 5 -25 -67 19 -150 87 -150 121 0 22 15 17 67 -25z m89 -159 c-33 -4 -80
18 -84 41 -3 15 4 14 53 -10 50 -25 54 -28 31 -31z m125 -68 c14 -7 32 -20 40
-30 13 -16 12 -17 -16 -10 -47 11 -116 47 -109 57 6 10 47 2 85 -17z m1179
-229 c0 -25 -4 -45 -8 -45 -5 0 -28 -19 -52 -41 -41 -39 -110 -78 -138 -79
-27 0 27 79 68 100 21 11 59 40 82 63 24 24 44 45 46 45 1 1 2 -18 2 -43z
m-1450 30 c0 -8 -82 -47 -87 -41 -3 2 12 14 34 25 39 20 53 25 53 16z m1180
-179 c0 -36 -29 -46 -128 -46 -92 0 -289 23 -301 36 -3 3 55 3 129 0 96 -5
155 -2 205 7 94 19 95 19 95 3z m270 -24 c0 -35 -3 -39 -48 -59 -60 -28 -140
-45 -184 -41 -68 6 -18 48 100 82 45 13 92 31 105 39 12 9 23 16 25 16 1 1 2
-16 2 -37z m-731 -28 c29 -24 61 -97 48 -110 -18 -19 -97 77 -97 119 0 24 14
21 49 -9z m216 -19 c171 -12 186 -15 174 -36 -20 -38 -220 -17 -294 32 l-30
20 35 -5 c19 -3 71 -8 115 -11z m-103 -52 c22 -26 28 -59 14 -79 -11 -15 -14
-14 -28 8 -24 36 -33 88 -15 88 7 0 21 -8 29 -17z m98 -35 c24 -26 25 -34 4
-42 -25 -10 -30 -7 -43 20 -20 45 4 59 39 22z m520 -56 l0 -79 -87 12 c-109
15 -157 29 -207 58 -70 40 -60 50 40 42 100 -7 210 6 233 30 8 8 17 15 18 15
2 0 3 -35 3 -78z m-704 10 c42 -40 54 -61 83 -146 18 -54 44 -118 56 -142 l22
-44 -106 1 c-58 1 -98 3 -88 6 18 5 18 6 -3 28 -11 12 -21 31 -20 41 0 11 1
43 1 73 0 30 4 60 10 67 7 9 6 19 -2 32 -10 16 -10 24 3 45 15 22 15 26 -3 56
-27 44 -10 38 47 -17z m276 36 c-9 -9 -15 -9 -24 0 -9 9 -7 12 12 12 19 0 21
-3 12 -12z m92 -77 c61 -34 287 -121 316 -121 16 0 20 -6 20 -35 0 -37 -5 -40
-42 -26 -13 5 -50 16 -83 26 -73 21 -173 78 -240 139 -57 52 -45 59 29 17z
m-94 -18 c14 -10 59 -44 100 -77 41 -33 123 -83 183 -111 l108 -52 -35 -17
c-28 -13 -69 -16 -233 -15 -109 0 -192 3 -185 6 19 7 15 22 -18 63 -35 45 -90
160 -90 190 0 36 29 21 49 -25 27 -62 117 -190 146 -209 14 -9 41 -16 61 -16
l36 0 -63 68 c-60 62 -131 160 -145 196 -9 23 54 22 86 -1z"/>
<path d="M7085 5209 c-8 -12 23 -137 38 -157 20 -25 26 4 17 76 -5 40 -12 77
-15 83 -8 12 -32 12 -40 -2z"/>
<path d="M7197 5214 c-9 -9 -9 -87 -1 -108 3 -9 13 -16 21 -16 11 0 13 13 11
62 -3 57 -14 79 -31 62z"/>
<path d="M7576 5149 c-30 -23 -34 -50 -10 -70 36 -29 101 43 68 76 -20 20 -26
19 -58 -6z"/>
<path d="M7417 5132 c-14 -16 -15 -24 -4 -67 l12 -50 48 1 c66 1 73 11 56 76
-14 52 -15 53 -55 56 -29 2 -45 -2 -57 -16z"/>
<path d="M7304 5121 c-34 -21 -54 -64 -54 -118 0 -44 17 -49 79 -22 l51 21 0
57 c0 81 -19 97 -76 62z"/>
<path d="M7150 5023 c-12 -21 -24 -53 -28 -72 l-5 -34 37 6 c21 3 44 11 52 18
20 17 18 82 -4 102 -25 23 -27 22 -52 -20z"/>
<path d="M7593 5045 c-33 -14 -48 -45 -41 -82 2 -13 14 -19 43 -21 55 -4 85
24 85 78 0 37 -2 40 -27 40 -16 -1 -42 -7 -60 -15z"/>
<path d="M7421 4970 c-42 -5 -68 -13 -77 -24 -14 -19 -8 -87 10 -126 11 -24
15 -25 81 -22 96 5 101 11 84 103 -8 40 -19 73 -24 74 -6 1 -39 -1 -74 -5z"/>
<path d="M7205 4905 c-22 -8 -40 -15 -41 -15 -6 -1 0 -151 5 -155 11 -6 112
23 129 38 9 7 12 31 10 76 -3 65 -3 66 -33 68 -16 2 -48 -4 -70 -12z"/>
<path d="M7561 4906 c-9 -11 -10 -29 -2 -73 15 -79 25 -87 83 -68 47 16 70 46
63 81 -16 80 -10 74 -74 74 -39 0 -63 -5 -70 -14z"/>
<path d="M7040 4824 c-42 -115 -37 -174 16 -174 26 0 52 35 80 106 15 41 15
43 -10 83 -37 59 -59 55 -86 -15z"/>
<path d="M7750 4835 c-20 -25 -24 -89 -6 -104 32 -27 96 22 96 74 0 17 -38 45
-61 45 -9 0 -22 -7 -29 -15z"/>
<path d="M7882 4818 c-28 -28 -6 -68 39 -68 36 0 48 33 23 61 -20 22 -44 25
-62 7z"/>
<path d="M7450 4770 c-69 -5 -75 -7 -84 -31 -21 -62 34 -139 101 -139 21 0 49
7 62 16 22 16 23 22 18 82 -4 36 -10 68 -14 71 -5 3 -42 4 -83 1z"/>
<path d="M7616 4725 c-12 -12 -56 -114 -56 -130 0 -15 51 -1 73 19 25 23 67
95 67 116 0 16 -67 12 -84 -5z"/>
<path d="M7834 4726 c-10 -25 15 -126 32 -133 26 -10 59 13 98 66 l36 51 -27
11 c-16 6 -52 13 -80 16 -44 5 -54 3 -59 -11z"/>
<path d="M7265 4725 c-5 -2 -31 -6 -57 -10 -67 -9 -108 -51 -108 -109 0 -32 6
-48 23 -64 28 -26 45 -27 74 -7 21 15 23 14 37 -20 13 -30 19 -35 49 -35 24 0
42 8 61 26 33 34 33 77 2 159 -19 49 -27 60 -47 62 -13 1 -28 0 -34 -2z"/>
<path d="M7708 4673 c-31 -37 -80 -115 -74 -120 3 -3 32 -12 66 -19 75 -18 94
-9 109 50 13 54 7 72 -30 91 -37 19 -53 19 -71 -2z"/>
<path d="M7396 4532 c-13 -21 -38 -50 -55 -65 -17 -14 -31 -28 -31 -30 0 -3
13 -10 29 -17 42 -17 86 -4 134 39 22 20 52 41 66 47 l26 10 -29 27 c-22 21
-39 27 -72 27 -40 0 -46 -3 -68 -38z"/>
<path d="M7852 4563 c-25 -5 -80 -99 -65 -114 4 -4 30 -14 57 -21 47 -12 48
-12 72 15 24 28 40 86 30 112 -5 15 -42 18 -94 8z"/>
<path d="M7615 4513 c-18 -13 -55 -83 -55 -102 0 -12 14 -24 43 -35 68 -26 83
-22 117 32 40 63 39 79 -7 91 -73 19 -88 21 -98 14z"/>
<path d="M7479 4436 c-24 -18 -64 -40 -89 -48 -50 -16 -53 -25 -17 -52 24 -18
26 -18 69 2 47 20 82 60 93 105 9 36 -2 34 -56 -7z"/>
<path d="M7731 4371 c-44 -41 -50 -65 -20 -84 13 -8 27 -3 62 23 35 25 52 31
71 26 34 -8 34 12 1 48 -34 36 -64 33 -114 -13z"/>
<path d="M6611 4207 c-50 -17 -74 -56 -79 -125 -5 -72 10 -92 55 -69 39 21 83
66 99 102 l13 30 1 -50 c0 -62 17 -97 50 -105 26 -7 122 21 146 41 28 23 15
58 -42 115 -48 48 -59 55 -82 49 -15 -3 -37 -16 -49 -27 l-22 -20 -3 33 c-2
28 -7 34 -28 36 -14 1 -40 -3 -59 -10z"/>
<path d="M6416 4016 c-36 -41 -66 -77 -66 -80 0 -15 40 -25 71 -16 40 12 42
10 29 -24 -13 -35 -2 -106 17 -106 30 0 93 40 93 60 0 30 18 33 22 3 3 -28 3
-28 80 -28 66 0 80 3 101 23 49 46 43 105 -12 117 -17 4 -33 15 -36 26 -4 10
-13 26 -21 34 -14 13 -19 13 -44 0 -35 -18 -70 -61 -71 -89 -1 -18 -2 -18 -8
4 -6 21 -13 25 -40 22 -28 -2 -32 0 -26 15 21 51 16 113 -9 113 -7 0 -43 -33
-80 -74z"/>
<path d="M6911 4026 c-7 -8 -31 -23 -55 -34 l-43 -21 -6 -73 c-3 -40 -3 -76 1
-80 4 -4 37 9 72 30 82 47 109 92 91 153 -13 41 -38 52 -60 25z"/>
<path d="M6858 3815 c-61 -32 -81 -68 -59 -104 18 -28 131 61 131 104 0 31
-12 31 -72 0z"/>
<path d="M6630 3791 c-11 -21 -14 -104 -4 -113 10 -10 91 22 118 47 17 16 26
35 26 55 l0 30 -65 0 c-53 0 -66 -3 -75 -19z"/>
<path d="M6515 3791 c-38 -16 -53 -44 -57 -108 -1 -34 0 -65 5 -69 10 -10 111
61 127 91 20 37 2 89 -30 92 -14 1 -34 -2 -45 -6z"/>
<path d="M6382 3724 c-16 -11 -22 -25 -22 -55 0 -35 3 -39 24 -39 43 0 73 69
44 98 -15 15 -19 15 -46 -4z"/>
<path d="M6705 3673 c-27 -15 -62 -26 -76 -25 -15 1 -48 -7 -74 -18 -41 -18
-46 -23 -43 -47 4 -38 31 -41 79 -9 21 15 39 23 39 18 0 -4 6 -16 13 -26 16
-22 38 -13 98 41 28 26 39 43 39 64 0 35 -10 36 -75 2z"/>
<path d="M2798 3886 c-55 -20 -85 -42 -117 -87 -91 -125 -45 -306 91 -363 51
-22 153 -20 203 3 23 10 59 39 82 65 161 183 -29 464 -259 382z m171 -57 c108
-78 120 -235 26 -326 -77 -73 -169 -69 -243 11 -66 71 -79 155 -38 243 33 71
82 103 157 103 47 0 63 -5 98 -31z"/>
<path d="M3760 3879 c-87 -39 -137 -110 -147 -205 -10 -95 47 -197 132 -235
49 -22 152 -25 199 -5 88 37 150 130 150 226 0 173 -178 290 -334 219z m170
-38 c44 -23 86 -82 102 -143 32 -126 -75 -261 -194 -245 -100 13 -174 115
-166 226 5 69 40 130 91 161 42 26 120 26 167 1z"/>
<path d="M5534 3882 c-75 -36 -95 -129 -38 -185 14 -14 55 -37 92 -52 84 -33
112 -59 112 -100 0 -70 -71 -110 -152 -86 -30 9 -43 20 -51 42 -16 42 -27 36
-27 -15 0 -43 0 -44 44 -55 142 -36 245 13 246 117 0 68 -30 100 -133 141
-107 43 -133 86 -86 145 17 22 28 26 70 26 55 0 89 -13 89 -35 0 -7 5 -17 10
-20 6 -4 10 10 10 33 0 46 -7 50 -89 58 -42 4 -66 0 -97 -14z"/>
<path d="M1867 3884 c-3 -3 0 -13 8 -21 12 -12 15 -52 15 -210 0 -169 -2 -199
-17 -215 -15 -17 -14 -18 41 -18 57 0 57 0 42 22 -12 16 -16 47 -16 115 l0 93
69 0 c53 0 70 -4 75 -16 10 -26 26 -5 26 36 0 40 -14 61 -24 35 -4 -11 -23
-15 -76 -15 l-70 0 0 80 0 80 86 0 c77 0 86 -2 91 -20 9 -34 24 -22 21 18 l-3
37 -131 3 c-71 1 -133 0 -137 -4z"/>
<path d="M4596 3882 c-3 -6 -2 -13 4 -17 15 -9 13 -418 -2 -433 -9 -9 11 -12
92 -12 121 0 169 17 223 81 98 114 61 291 -76 360 -47 24 -229 40 -241 21z
m205 -60 c43 -22 59 -38 81 -81 72 -138 -1 -272 -157 -288 l-55 -6 0 202 0
201 39 0 c23 0 60 -11 92 -28z"/>
</g>
</svg>
